<?xml version="1.0" encoding="utf-8"?>
<!-- Generator: Adobe Illustrator 23.0.2, SVG Export Plug-In . SVG Version: 6.00 Build 0)  -->
<svg version="1.1" id="Layer_1" xmlns="http://www.w3.org/2000/svg" xmlns:xlink="http://www.w3.org/1999/xlink" x="0px" y="0px"
	 viewBox="0 0 256.1 743.7" style="enable-background:new 0 0 256.1 743.7;" xml:space="preserve">
<style type="text/css">
	.st0{fill:#614336;}
	.st1{fill:#C9D7E7;}
	.st2{fill:#AA6B3F;}
	.st3{fill-rule:evenodd;clip-rule:evenodd;fill:#C9D7E7;}
	.st4{fill-rule:evenodd;clip-rule:evenodd;fill:#1B1E1D;}
	.st5{fill:#334447;}
	.st6{fill:#252928;}
	.st7{fill:#43565B;}
	.st8{fill:#99552E;}
	.st9{fill:#99BECE;}
	.st10{fill:#739299;}
	.st11{fill:#1B1E1D;}
	.st12{fill:#FFFFFF;}
	.st13{fill-rule:evenodd;clip-rule:evenodd;fill:#D89060;}
	.st14{fill:#352A2C;}
	.st15{fill:#D89060;}
	.st16{display:none;}
	.st17{display:inline;}
	.st18{fill-rule:evenodd;clip-rule:evenodd;fill:#00FF00;}
</style>
<g id="Doctor_x5F_F">
	<path class="st0" d="M44.6,140.5"/>
	<g id="Doctor">
		<g id="LeftArm">
			<g id="LeftArm-2">
				<g id="Lefttarm">
					<path class="st1" d="M225.5,254.5c-3.3-7-11.6-24.2-22.6-30.9c-2.6-1.6-5.7-2.4-8.8-2.3c-16-0.3-29.3,10.9-29.4,30.7
						c-0.1,8.8,8.4,38,14.8,65.7c5.6,24,9.1,47.4,9.8,48.9c2.7,5.3,5.2,15.2,33.3,12.8c14.5-1.4,25.4-10.4,26.2-18.6
						C247.3,343.5,233.5,269.7,225.5,254.5z"/>
				</g>
				<circle id="Elbow" class="st1" cx="190.8" cy="246.8" r="26.1"/>
			</g>
			<g id="LeftForearm">
				<g id="LeftHand">
					<path class="st2" d="M254.6,447.1c-9.1,0.2-50.5-0.1-57.4,0.2c-1.4,3.9-2.1,8.1-2.1,12.3c0.1,3.2,0,6.7,0.8,9.8
						c3.3,11.8,12.4,21.5,28.5,22.2C254,492.7,259.2,466,254.6,447.1z"/>
				</g>
				<path class="st1" d="M189.3,359.1c-0.7,16.4,12.1,30.3,28.6,31c0,0,0,0,0,0c16.5,0.7,31.3-12.1,31-28.6
					c-0.4-16.3-12.3-30.3-28.6-31C203.8,329.8,189.9,342.5,189.3,359.1C189.3,359,189.3,359,189.3,359.1z"/>
				<path class="st3" d="M215.3,333c-16-0.6-26.9,10.3-26.7,27.3c0.1,7.3,2.7,23.6,4.3,42c1.2,14.4,4,37.4,4.3,45
					c27.9,0.9,45.1-0.1,57.8,0.3c0.7-22.3-5.4-79.4-6.9-92.3C244.5,339,231.2,333.6,215.3,333z"/>
			</g>
		</g>
		<g id="LeftLeg">
			<g id="LeftCalfLeg">
				<path id="LeftShoes" class="st4" d="M226.2,732.5c1.1,7.9-46.7,8.3-62.4,7.2s-24.1-4-29-6.1s0.2-36,2.5-39.1
					c0.1-0.5,0-9.2,2.3-9.8c11.3-2.7,40.9-1.1,49.6-1.3c1.4,0,4,6,4,6S222.3,704.5,226.2,732.5z"/>
				<g id="LeftLeg-2">
					<path class="st5" d="M128.1,567.2c0.2,65.8,3.2,120.5,3.2,120.5s14.3,6,34.7,6.2c12.8,0,25.6-1.1,38.2-3.2
						c0,0,1.5-55.8,3.4-119.9C179.7,541.8,139.8,555.5,128.1,567.2z"/>
				</g>
				<ellipse id="Knee" class="st5" cx="167.8" cy="572.9" rx="39.8" ry="38.9"/>
			</g>
			<g id="LeftLeg-3">
				<g id="LeftLeg-4">
					<path class="st5" d="M130.3,445.7c-0.4,3.3-1.3,18.9-2.2,79.5c-0.2,15.9-0.2,32.3-0.1,48.3c40.2,35.8,40.8,36.4,79.4,1.2
						c1.8-62,4.2-129.7,4.2-129.7S130.7,442.4,130.3,445.7z"/>
				</g>
				<ellipse id="LeftTop" class="st5" cx="170.7" cy="447.5" rx="40.7" ry="39.4"/>
			</g>
		</g>
		<g id="RightLeg">
			<g id="RightCalfLeg">
				<g id="RightShoes">
					<g id="RightShoes-2">
						<path class="st6" d="M161.8,737.3c-2.9-28.4-31.5-44.6-31.5-44.6s-2.4-6.2-3.8-6.2c-8.7-0.1-38.2-2.7-49.6-0.3
							c-2.4,0.5-2.4,9.3-2.6,9.8c-2.3,3-8.5,37.1-3.8,39.4s13.2,5.5,28.7,7.1S162.6,745.4,161.8,737.3z"/>
					</g>
				</g>
				<g id="RightLeg-2">
					<path class="st7" d="M64.4,568.7c0.2,66.5,3.2,121.8,3.2,121.8s14.3,6,34.7,6.3c12.8,0,25.6-1.1,38.2-3.3
						c0,0,1.5-56.4,3.4-121.1C116,543.1,76.1,556.9,64.4,568.7z"/>
				</g>
				<ellipse id="Knee-2" class="st7" cx="104.1" cy="574.5" rx="39.8" ry="39.3"/>
			</g>
			<g id="RightLeg-3">
				<g id="RightLeg-4">
					<path class="st7" d="M66.6,445.9c-0.4,3.3-1.3,19.1-2.2,80.3c-0.2,16.1-0.2,32.6-0.1,48.8c40.2,36.2,40.8,36.8,79.4,1.2
						c1.8-62.7,4.1-131,4.1-131S67,442.6,66.6,445.9z"/>
				</g>
				<ellipse id="RightTopLeg" class="st7" cx="107" cy="447.8" rx="40.7" ry="39.8"/>
			</g>
		</g>
		<g id="Pelvis">
			<path class="st7" d="M203.7,408.4l-134.3-0.1c0,0-1.8,16.8-1.8,44.5c13.6,9.9,35.3,15,54.3,16.1c6.9,0.4,26.9,0.7,27-0.1
				c1.2-1,12.8-4,18.1-8.4c4.4-3.6,9.3-9.5,13-14.5c4.1-5.3,25.8-11.8,25.8-11.8S204,409.2,203.7,408.4z"/>
		</g>
		<g id="Torso">
			<rect id="Neck" x="128.3" y="185.5" class="st8" width="31.4" height="43.6"/>
			<g id="Vest">
				<path class="st9" d="M123.4,410.6c-0.4-21.3-2.8-173.6-2.4-200.8c0.1-0.9,1.9-1.4,5.2-1.4h0.8l0.2,0.2c3,4.1,10.9,15,18.4,21.2
					c1,0.8,2.5,0.8,3.4-0.2l0.2-0.2c3.2-3.1,6-6.6,8.1-10.6c1.8-3.6,3.3-7.3,4.5-11.2c1.3,0.5,2.7,1.2,3,2.3
					c3.6,17.6,7.8,63.9,11.4,104.8l0.3,3c3.5,38.5,4.5,82,4.7,92.8L123.4,410.6z"/>
				<path class="st10" d="M125.8,211c3.4,4.7,10.9,14.8,18.2,20.9c2,1.7,4.9,1.5,6.7-0.3l0.2-0.2c3.4-3.3,6.3-7,8.6-11.1
					c1.2-2.4,2.3-4.8,3.2-7.3c3.5,18.9,7.5,63.1,11,102.4l0.3,3c3.2,35.9,4.4,76.1,4.6,90h-52.8c-0.4-28.1-2.6-167.8-2.3-197
					C124.3,211,125,211,125.8,211 M160,204.8c-1.2,4.5-2.9,8.8-4.9,13c-2.1,3.8-4.8,7.2-8,10.2c-8.9-7.4-18.8-22.2-19-22.2l0,0
					c0,0-0.4,0.1-1.1,0.1h-0.8c-2.7,0-7.5,0.2-7.7,3.8c-0.4,29.2,2.5,203.4,2.5,203.4h62.8c0,0-0.8-50.7-4.8-95.5
					c-3.8-42-8.1-90-11.8-108.1C166.2,205.6,160.1,204.8,160,204.8L160,204.8z"/>
			</g>
			<g id="VestCollar">
				<path class="st10" d="M147.5,230.8c-5.2,0.5-23.7,12-23.7,12s0.3,4.5,3.7,1.9c4.9-3,16.6-9.8,19.9-11.1
					c3.2-0.1,18.5,11.1,18.9,11s1.1-2.8,1.1-2.8S152.8,230.4,147.5,230.8z"/>
			</g>
			<g id="Belt">
				<rect x="125.2" y="403" class="st11" width="54" height="13.2"/>
			</g>
			<g id="LabCoatLeft">
				<path class="st12" d="M227.2,377.7c-1.6-27.6-8.3-71.7-11.3-94.8c-3.6-28.1-7.6-49.7-8.7-55.3c-0.2-0.9-0.7-1.7-1.5-2.2
					c-2.9-2-10.4-7-16.8-10.7c-8.6-4.9-15.2-7.4-17.3-7.9c-1.8-0.4-3.6-0.7-5.3-1c-1.9-0.3-3.7,1.1-4,3.1c0,0.3,0,0.6,0,0.8
					c1.8,17.2,8.4,82.6,12.6,151.2s5.5,140.6,4.1,171c-0.1,2,1.4,3.6,3.4,3.7c0.3,0,0.6,0,1-0.1c18.7-4.3,37.8-9.1,47.4-12.5
					c1.4-0.5,2.3-1.8,2.4-3.3C233.7,502,233,445.1,227.2,377.7z"/>
			</g>
			<g id="LabCoatRight">
				<path class="st12" d="M126.7,218.4c0-0.1,0-0.2,0-0.2c0.3-5.4,0.2-9.7-0.5-11.4c-0.5-1.3,0.9-0.8-1-1.4c-3.7-1.6-8.2-1.2-17-0.8
					c-0.2,0-0.4,0-0.6,0.1c-20.6,3.9-43.8,12.1-53.2,18.2c-5.1,3.3-1.8,6.8-1.8,6.8s7.2,9.4,6.5,27.5C56.8,320.1,39.7,460,39.7,460
					s-4,37.3-3.8,53.5c0,1.6,1,3.1,2.5,3.7c10.3,4.2,19.5,7.4,37.3,12c14.9,3.7,30.1,6.2,45.4,7.6c2.2,0.2,4.2-1.4,4.4-3.6
					c0,0,0-0.1,0-0.1c0.6-9.1,2.1-32,3.5-55.7C129.2,453.2,127,251.3,126.7,218.4z"/>
			</g>
			<path id="CollarLabcoat2" class="st1" d="M174,314.8L174,314.8c-1.1-0.2-1.8-1.3-1.6-2.4c0,0,0,0,0,0
				c5.3-22.9,17.1-77.1,16.5-88.4c0-0.3-0.1-0.7-0.3-0.9c-4.1-6.2-17.5-13.5-24.3-16.8c-1-0.5-3.5-1.2-3.1-2.2l0.8-1.5
				c0.5-1,3.1-0.4,4.1,0.1c5.7,2.7,22.2,11.2,26.6,19.2l0.2,0.3l0,0.4c1.6,11-13.6,78-16.5,90.6C176.2,314.4,175.1,315.1,174,314.8z
				"/>
			<path id="CollarLabcoat1" class="st1" d="M125.7,315c-1,0.4-2.1,0-2.6-1c0,0,0,0,0,0c-7.3-17.4-34.5-82.4-34.7-87.7
				c-0.1-2.2,1.7-5.8,15.8-14.9c5.4-3.5,9-5.6,11.7-7.2c1.5-0.1,3-0.1,4.6,0c0.7,0.1,1.4,0.2,1.4,0.2c-0.7,0.8-1.5,1.5-2.3,2.2
				c-11.9,6.8-24.4,15.2-26.8,18.7c-0.3,0.5-0.4,1-0.3,1.6c1.9,7.5,21.3,54.8,34.2,85.5C127.2,313.4,126.8,314.6,125.7,315
				L125.7,315z"/>
		</g>
		<g id="RightArm">
			<g id="Rightarm-2">
				<g id="Rightarm-3">
					<path class="st12" d="M62,222.1c-3.1-0.1-6.1,0.7-8.8,2.3c-11.1,6.7-19.3,23.9-22.6,30.9c-8,15.2-21.8,89-23.3,106.1
						c0.8,8.2,11.7,17.2,26.2,18.6c28.1,2.4,30.6-7.4,33.2-12.7c0.7-1.4,4.2-24.9,9.8-48.9c6.4-27.7,15-56.9,14.8-65.7
						C91.3,233,78,221.9,62,222.1z"/>
				</g>
				<circle class="st12" cx="66.5" cy="246.1" r="26.1"/>
				<path class="st1" d="M66.6,363.7c-0.3,0-0.6,0-0.9-0.1c-2.1-0.6-1.8-2.4-1.5-4.3c0.1-1,0.4-2.5,0.7-4.4
					c0.5-3.2,1.4-8.4,2.5-14.8c2-10.7,5-25.8,8.5-37.2c0.3-1.3,1.7-2.1,3-1.8c1.3,0.3,2.1,1.7,1.8,3c0,0.1,0,0.1-0.1,0.2
					c-6.2,20.5-11.3,54.1-11.7,56.9c0,0.3,0,0.5-0.1,0.8C68.5,363,67.6,363.7,66.6,363.7z"/>
			</g>
			<g id="RightForearm">
				<g id="RightHand">
					<g id="RightHand-2">
						<path class="st13" d="M59.6,447.2c-6.8-0.3-49,0.6-58.1,0.4C-3.1,466.5,2,493.2,31.5,492c16.2-0.6,25.3-10.4,28.6-22.2
							c0.9-3.1,1.3-6.3,1.4-9.6C61.6,455.9,60.9,451.4,59.6,447.2z"/>
					</g>
				</g>
				<g id="RightForearm-2">
					<path class="st12" d="M40.7,333.5c-15.9,0.6-29.1,6.1-32.8,22.4c-1.5,12.9-7.6,70-6.9,92.3c12.8-0.4,29.9,0.6,57.8-0.3
						c0.4-7.6,3.1-30.6,4.3-45c1.6-18.4,4.2-34.7,4.3-42C67.6,343.8,56.7,332.9,40.7,333.5z"/>
				</g>
				<circle id="Elbow-2" class="st12" cx="37.4" cy="360.7" r="29.8"/>
				<path id="Line" class="st1" d="M60.2,447.9c-0.7,0-2-0.1-2.8-0.1c-0.1-1.7,0.1-3.6,0.1-4.9c0.1-1.9,0.3-4.6,0.5-8
					c0.2-4.8,0.7-14.5,1.5-26c1.2-18.3,3.2-43.2,5.7-57.6c0.2-1.4,1.5-2.3,2.9-2s2.3,1.5,2,2.9C65.5,378.8,60.4,446.8,60.2,447.9z"
					/>
			</g>
		</g>
		<g id="Head">
			<path id="Ponytail" class="st14" d="M68.3,162.5c-2.7-0.2-7.6-0.1-12.6,2.7c-2.9,1.6-4.5,3.3-7.3,6.5c-2.8,3.1-8.1,9.1-10.1,18.1
				c-0.3,1.4-0.5,2.5-0.6,3.3c0.3,2.1,0.7,5.1,1.1,8.6c1,9.4,0.5,11.2-0.7,12.1c-1.5,1.2-4,1-5.7,0.1c-3-1.6-3.2-5.1-3.2-5.3
				c0,0-4.8,4.6,3.8,13.1c2.3,1.3,6,3.1,10.9,3.9c6.4,1,11.4-0.1,12.6-0.4c8.9-2.3,14.2-8.2,17.5-12c1.9-2.1,5.5-6.6,8.1-13.2
				c0.8-2,2.9-7.3,3-12.3c0.1-3.5-0.5-13.9-1.9-16.9C78.9,162.1,69.8,163.5,68.3,162.5z"/>
			<g id="Skin">
				<g id="Ear2">
					<path class="st2" d="M213.2,112.4c-8.7,0.2-17.8,10.6-17.5,22.4s6.2,21.3,14.9,21.1s16.8-9.9,16.6-21.7
						S221.9,112.2,213.2,112.4z"/>
				</g>
				<g id="Face">
					<path class="st15" d="M206,76.9c-12.4-24.1-39.7-30.3-66.7-30.7C119.5,46,97.4,48.3,84,62.3c-13.8,14.5-18.5,41-18.8,63.6
						c-0.6,44.5,31.7,81,72,81.6s64.4-11.3,70.8-58C210.2,133.7,212.2,88.9,206,76.9z"/>
				</g>
				<g id="Ear1">
					<path class="st15" d="M67.9,118.7c-9.1-10.2-19.3-5.1-22.7-2.8s-12.6,12.2-4.6,32.1s35.2,15.3,35.2,15.3l2.8-17.2
						C78.5,146.1,77,128.9,67.9,118.7z"/>
				</g>
				<path class="st2" d="M64.1,155.3c-3.7,0-9.5-1.6-10.6-7.4c-1.2-5.1,0.3-8.1,1.8-9.8c1.7-1.8,4-2.9,6.5-3c0.8,0,1.4-0.7,1.3-1.5
					c0-0.2,0-0.3-0.1-0.5c-1.3-3.7-3.7-7.9-6.9-9.4c-1.9-0.9-4.1-0.8-5.9,0.3c-0.7,0.4-1.6,0.1-2-0.6s-0.1-1.6,0.6-2
					c2.7-1.6,5.9-1.7,8.7-0.4c5.2,2.6,8.4,9.9,9.3,14.5c0.1,0.5,0,0.9-0.4,1.3l-0.7,0.7c-0.3,0.3-0.7,0.5-1.2,0.4
					c-3.2-0.2-5.7,0.5-7.1,2.1s-1.8,4.1-1.1,7.2c1,5.5,8.5,5,8.6,5c0.8-0.1,1.6,0.6,1.6,1.4c0.1,0.8-0.6,1.6-1.4,1.6l0,0
					C64.9,155.3,64.5,155.3,64.1,155.3z"/>
			</g>
			<g id="Face-2">
				<path id="Eyelash2" class="st11" d="M187.8,111.3l-3.4,1.6c-0.6,0.3-0.8,1-0.6,1.5l0,0c0.3,0.6,1,0.8,1.5,0.6l3.4-1.6
					c0.6-0.3,0.8-1,0.6-1.5l0,0C189,111.3,188.3,111,187.8,111.3z"/>
				<path id="Eyelash1" class="st11" d="M117,113.4l4,1.5c0.6,0.2,1.3-0.1,1.5-0.7l0,0c0.2-0.6-0.1-1.3-0.7-1.5l-4-1.5
					c-0.6-0.2-1.3,0.1-1.5,0.7l0,0C116.1,112.5,116.4,113.2,117,113.4z"/>
				<path id="Eyebrow2" class="st14" d="M194.1,104.1L194.1,104.1c0.5-0.8,0.4-1.8-0.3-2.5c-3.5-2.9-14.3-10.3-24.4-1.4
					c-0.7,0.7-0.8,1.7-0.3,2.5l0,0c0.3,0.6,1,0.8,1.6,0.5c0.1,0,0.2-0.1,0.2-0.2c8.9-7.8,18.2-1.3,21.3,1.4c0.5,0.5,1.3,0.4,1.7-0.1
					C194.1,104.3,194.1,104.2,194.1,104.1z"/>
				<path id="Eyebrow1" class="st14" d="M113,103.5L113,103.5c-0.5-0.8-0.4-1.9,0.4-2.5c3.9-2.9,15.6-9.9,26.3-0.7
					c0.7,0.7,0.8,1.7,0.2,2.5l0,0c-0.4,0.6-1.2,0.8-1.9,0.4c-0.1,0-0.1-0.1-0.1-0.1c-9.4-8.1-19.6-1.7-22.9,0.8
					c-0.6,0.5-1.4,0.4-1.9-0.2C113,103.6,113,103.6,113,103.5z"/>
				<path class="st8" d="M155,158c-2.1,0-2.3-0.1-2.7-1l0,0c-0.3-0.6-0.3-1.3,0-1.9l0,0c0.5-1,2-0.6,2-0.6c0.8,0,2.5,0,6.6,0
					c0.9,0,2.1-1.5,2-2.6c-0.2-7.2-1.1-19.6-1.4-24.4c-0.1-1,0.3-1.8,1.2-1.9l0,0c0.9,0,1.7,0.7,1.7,1.6c0,0,0,0,0,0.1
					c0.4,5.8,1.6,23.1,1.4,28.8l0,0c0,0.9-0.7,1.7-1.6,1.8l0,0c-4.2,0-6.8,0-8.4,0L155,158z"/>
				<g id="Eye2">
					
						<ellipse transform="matrix(1.274062e-02 -0.9999 0.9999 1.274062e-02 57.1538 298.3695)" class="st11" cx="179.7" cy="120.2" rx="10.5" ry="7.1"/>
				</g>
				<g id="Eye1">
					<path class="st11" d="M126.6,109.1c-3.9,0-7.2,4.6-7.3,10.4s3.1,10.5,7,10.6c3.9,0.1,7.2-4.6,7.3-10.4
						C133.6,113.9,130.5,109.1,126.6,109.1z"/>
				</g>
				<path class="st8" d="M155.1,175.1c-9.7-0.1-15.5-2.7-15.9-2.9c-0.7-0.4-1-1.3-0.7-2c0.4-0.7,1.2-1,1.9-0.7l0,0
					c0.1,0.1,13.3,5.8,32.6,0c0.8-0.3,1.6,0.1,1.9,0.9c0.3,0.8-0.1,1.6-0.9,1.9c0,0-0.1,0-0.1,0
					C167.8,174.2,161.5,175.2,155.1,175.1z"/>
			</g>
			<g id="Hair">
				<g id="Hair-2">
					<path class="st14" d="M175.8,13.5c-53.6-30.5-98.6,4.1-101,7.9s-4.8,8.4-5.4,13.4c-2.6,0.6-10.9,4.6-15.9,14.1
						c-3.9,8-6.2,16.6-7.1,25.4c-1.2,14,1.1,30.3,4,39.1c12.5-1.4,17.7,5.1,17.4,5.3c0,0,5.5,19.2,6.3,20.5c1.6,0.1,3-1.3,3-1.3
						l0.4-33.9c0,0,2.1-0.5,9.1-10.4c20.7-7.5,32-20.8,35.8-33.2c28.1,20.9,56.2,23.6,85.9,25c0.6,5.6,0.2,4.4,0.6,12
						c0.3,6.4,0.6,15.3,0.5,23.3c-0.2,9.2,0.4,14.4,0.4,14.4c3.4-8.7,4.3-12.8,4.9-21.1c1.9-18.3,1-26.5,1.1-30
						c0-1,1.3-21.1-7.9-39.6C201.6,31.8,188,20.8,175.8,13.5z"/>
				</g>
			</g>
		</g>
	</g>
</g>
<g id="PivotReference" class="st16">
	<g id="PivotReference-2" class="st17">
		<path class="st18" d="M107.1,444.2c-2,0-3.6,1.6-3.6,3.6c0,2,1.6,3.6,3.6,3.6c2,0,3.6-1.6,3.6-3.6l0,0
			C110.7,445.8,109.1,444.2,107.1,444.2z M219,356.7c-1.9,0-3.4,1.5-3.4,3.4s1.5,3.4,3.4,3.4c1.9,0,3.4-1.5,3.4-3.4
			C222.3,358.2,220.8,356.7,219,356.7C219,356.7,219,356.7,219,356.7z M37.5,357.1c-1.9,0-3.4,1.5-3.4,3.4c0,1.9,1.5,3.4,3.4,3.4
			c1.9,0,3.4-1.5,3.4-3.4c0,0,0,0,0,0C40.8,358.6,39.3,357.1,37.5,357.1z M190.8,243.5c-1.9,0-3.4,1.5-3.4,3.4s1.5,3.4,3.4,3.4
			c1.9,0,3.4-1.5,3.4-3.4S192.7,243.5,190.8,243.5L190.8,243.5z M66.5,242.4c-1.9,0-3.4,1.5-3.4,3.4c0,1.9,1.5,3.4,3.4,3.4
			s3.4-1.5,3.4-3.4c0,0,0,0,0,0C69.9,243.9,68.4,242.4,66.5,242.4L66.5,242.4z M152.4,205.5c-1.9,0-3.4,1.5-3.4,3.4
			c0,1.9,1.5,3.4,3.4,3.4c1.9,0,3.4-1.5,3.4-3.4c0,0,0,0,0,0C155.7,207,154.2,205.5,152.4,205.5z M104.3,570.9c-2,0-3.6,1.6-3.6,3.6
			s1.6,3.6,3.6,3.6s3.6-1.6,3.6-3.6S106.3,570.9,104.3,570.9L104.3,570.9z M170.6,443.9c-2,0-3.6,1.6-3.6,3.6c0,2,1.6,3.6,3.6,3.6
			c2,0,3.6-1.6,3.6-3.6l0,0C174.1,445.6,172.5,444,170.6,443.9L170.6,443.9z M167.8,569.1c-2,0-3.6,1.6-3.6,3.6s1.6,3.6,3.6,3.6
			s3.6-1.6,3.6-3.6C171.3,570.7,169.7,569.1,167.8,569.1L167.8,569.1z"/>
	</g>
</g>
</svg>
