<?xml version="1.0" encoding="utf-8"?>
<!-- Generator: Adobe Illustrator 23.0.2, SVG Export Plug-In . SVG Version: 6.00 Build 0)  -->
<svg version="1.1" id="Doctor_1_" xmlns="http://www.w3.org/2000/svg" xmlns:xlink="http://www.w3.org/1999/xlink" x="0px" y="0px"
	 viewBox="0 0 271.7 743.6" style="enable-background:new 0 0 271.7 743.6;" xml:space="preserve">
<style type="text/css">
	.st0{fill:#151716;}
	.st1{fill:#415064;}
	.st2{fill:#252928;}
	.st3{fill:#4C5E75;}
	.st4{fill:#C9D7E7;}
	.st5{fill-rule:evenodd;clip-rule:evenodd;fill:#E28B6C;}
	.st6{fill:#C9795A;}
	.st7{fill:#9B98D2;}
	.st8{fill:#726F9A;}
	.st9{fill:#1B1E1D;}
	.st10{fill:#FFFFFF;}
	.st11{fill-rule:evenodd;clip-rule:evenodd;fill:#F6C6A6;}
	.st12{fill:#E28B6C;}
	.st13{fill:#F6C6A6;}
	.st14{fill:#EA9E86;}
	.st15{fill:#614336;}
	.st16{fill:#C97C5D;}
	.st17{display:none;}
	.st18{display:inline;}
	.st19{fill-rule:evenodd;clip-rule:evenodd;fill:#00FF00;}
</style>
<g id="Doctor">
	<g id="LeftShoes">
		<g id="LeftShoes-2">
			<path class="st0" d="M229.5,732.7c-2.6-28.5-33.7-39.8-33.7-39.8s-0.2-7.4-1.6-7.4c-8.5-0.1-40.1-3-51.3-0.7
				c-2.3,0.5-2.5,9.3-2.6,9.8c-2.3,3-5.7,37.2-1,39.5s17.7,3.5,33,5.2S230.3,740.7,229.5,732.7z"/>
		</g>
	</g>
	<g id="LeftLeg">
		<g id="LeftLeg-2">
			<path class="st1" d="M212.3,412.9l-62,0.1l-1.6,280c11.6,1.4,23.2,2.2,34.8,2.3c17.5,0,26.7-4.8,27.2-4.8
				c0.1,0,2.9-58.6,3.8-113.3C215.3,523.7,212.3,412.9,212.3,412.9z"/>
		</g>
	</g>
	<g id="RightShoes">
		<g id="RightShoes-2">
			<path class="st2" d="M170.3,737.2c-2.9-28.3-31.5-44.6-31.5-44.6s-2.4-6.2-3.8-6.2c-8.7-0.1-38.3-2.7-49.6-0.3
				c-2.4,0.5-2.4,9.3-2.6,9.8c-2.3,3-8.5,37.1-3.8,39.4s13.2,5.5,28.8,7.1S171.1,745.3,170.3,737.2z"/>
		</g>
	</g>
	<g id="RightLeg">
		<g id="RightLeg-2">
			<path class="st3" d="M189.5,415.2c-17.7-4.5-112.6-1.1-112.6-1.1s-3.1,50.8-4,112c-1.1,76.3,3.1,164.3,3.1,164.3s14.3,6,34.7,6.3
				c12.8,0,25.6-1.1,38.2-3.3c0,0,6.1-218.5,6.9-224.9c1.2-1,19.3-10.6,24.6-15C186,449,190,443,192,436.2
				C192,436.2,191.5,415.7,189.5,415.2z"/>
		</g>
	</g>
	<g id="LeftArm">
		<g id="Leftarm-2">
			<g id="Leftarm-3">
				<path class="st4" d="M230.5,253.3c-4.4-8.7-16.3-32.5-32.3-32.4s-29.1,11.5-28.7,31.3c0.1,8.8,9.4,37.7,16.5,65.2
					c6.2,23.8,10.4,47.1,11,48.5c2.8,5.2,5.5,15,33.6,11.9c14.5-1.8,25.2-11,25.8-19.2C254.7,341.6,238.9,268.2,230.5,253.3z"/>
			</g>
			<g id="Leftarm-4">
				<path class="st4" d="M230.3,251.7c-2.5-5-9.3-17.2-16.6-24.9c-8.2-5.8-10.3-7.9-17.1-7.8c-16,0.1-27.8,11.9-27.4,31.6
					c0.1,8.8,9.4,37.7,16.5,65.2c6.2,23.8,10.4,47.1,11.1,48.5c2.8,5.2,5.5,15,33.6,11.9c14.5-1.8,25.2-11,25.8-19.2
					C254.4,340,238.8,266.7,230.3,251.7z"/>
			</g>
		</g>
		<g id="LeftForearm">
			<g id="LeftHand">
				<g id="RightHand">
					<path class="st5" d="M269.4,446.4c-8.4,0.8-47.5,2.8-53.8,3.5c-1,4.8-1.3,9.7-0.9,14.5c0.3,3.5,0.9,7,1.9,10.4
						c3.8,12.7,12.9,22.8,27.9,22.4C271.9,496.5,274.9,466.8,269.4,446.4z"/>
				</g>
			</g>
			<g id="RightForearm">
				<path class="st4" d="M256.9,357.4c-4.4-15.5-12.7-23-27.4-22.6s-28.5,14.8-27.2,31.1c0.5,7.1,4,22.6,6.6,40.2
					c2,13.8,6,35.8,6.8,43.2c25.8-0.9,41.6-3,53.4-3.4C268.4,424.4,259.1,369.7,256.9,357.4z"/>
			</g>
		</g>
	</g>
	<g id="Torso">
		<g id="Neck">
			<ellipse class="st6" cx="151.1" cy="216.4" rx="19.9" ry="18.8"/>
		</g>
		<g id="Vest">
			<path class="st7" d="M130.2,410.4c-0.4-21.3-2.8-173.6-2.4-200.8c0.1-0.9,1.9-1.4,5.2-1.4h0.8l0.2,0.2c3,4.1,10.9,15,18.4,21.2
				c1,0.8,2.5,0.8,3.4-0.2l0.2-0.2c3.2-3.1,6-6.6,8.1-10.6c1.8-3.6,3.3-7.3,4.5-11.2c1.3,0.5,2.7,1.2,3,2.3
				c3.6,17.6,7.8,63.9,11.4,104.8l0.3,3c3.5,38.5,4.5,82,4.7,92.8L130.2,410.4z"/>
			<path class="st8" d="M132.6,210.7c3.4,4.7,10.9,14.8,18.2,20.9c2,1.7,4.9,1.5,6.7-0.3l0.2-0.2c3.4-3.3,6.3-7,8.6-11.1
				c1.2-2.4,2.3-4.8,3.2-7.3c3.5,18.9,7.4,63.1,11,102.4l0.3,3c3.2,35.9,4.4,76.1,4.6,90h-52.8c-0.4-28.1-2.6-167.8-2.3-197
				C131.1,210.7,131.8,210.7,132.6,210.7 M166.8,204.5c-1.2,4.5-2.9,8.8-4.9,13c-2.1,3.8-4.8,7.2-7.9,10.2
				c-8.9-7.4-18.8-22.2-19-22.2l0,0c0,0-0.4,0.1-1.1,0.1H133c-2.7,0-7.5,0.2-7.7,3.8c-0.4,29.2,2.5,203.4,2.5,203.4h62.8
				c0,0-0.8-50.7-4.8-95.5c-3.8-42-8.1-90-11.8-108.1C173,205.3,166.9,204.5,166.8,204.5L166.8,204.5z"/>
		</g>
		<g id="VestCollar">
			<path class="st8" d="M154.3,230.6c-5.2,0.5-23.7,12-23.7,12s0.3,4.5,3.7,1.9c4.9-3,16.6-9.8,19.9-11.1c3.2-0.1,18.5,11.1,18.9,11
				s1.1-2.8,1.1-2.8S159.6,230.1,154.3,230.6z"/>
		</g>
		<g id="Belt">
			<rect x="132" y="402.7" class="st9" width="54" height="13.2"/>
		</g>
		<g id="LabCoatLeft">
			<path class="st10" d="M234,385.1c-1.6-28.9-8.3-74.8-11.3-99c-4.2-34.2-9-59.3-9-59.3s-9.8-7.2-18-12c-8.6-5.1-15.2-7.7-17.3-8.3
				c-3.2-0.7-6.5-1.2-9.8-1.5c0,0,8.2,79,13,162.4c4.4,75.4,5.6,155.1,3.8,183.3c21.7-5.2,45-11.2,54.3-15
				C240.5,520.9,240,459.1,234,385.1z"/>
		</g>
		<g id="LabCoatRight">
			<path class="st10" d="M133.5,218.6c0.3-5.7,0.2-10.2-0.4-12c-0.5-1.4-0.7-1-2.6-1.6c-3.8-1.7-6.7-1.1-15.6-0.6
				c-20.7,4-44,12.7-53.5,19c-5.1,3.5-1.8,7.1-1.8,7.1s7.2,9.8,6.5,28.6c-2.4,65.7-19.5,211.5-19.5,211.5s-4.6,43.6-3.8,58.5
				c11.3,5,20.5,8.4,39.7,13.5c16.2,4.2,32.8,6.9,49.5,8.3c0,0,2-30.5,3.8-62.2C136,463.4,133.8,252.5,133.5,218.6z"/>
		</g>
		<path id="CollarLabcoat2" class="st4" d="M181,314.6L181,314.6c-1.1-0.2-1.8-1.3-1.6-2.3c0,0,0,0,0,0
			c5.4-22.9,17.4-77.1,16.9-88.4c0-0.3-0.1-0.7-0.3-0.9c-4.2-6.2-17.9-13.5-24.8-16.8c-1-0.5-3.6-1.2-3.1-2.2l0.8-1.5
			c0.5-1,3.1-0.4,4.2,0.1c5.8,2.7,22.6,11.2,27.1,19.2l0.2,0.3l0,0.4c1.6,11-13.9,78-16.9,90.6C183.3,314.1,182.2,314.8,181,314.6z"
			/>
		<path id="CollarLabcoat1" class="st4" d="M131.8,314.8c-1,0.4-2.2,0-2.6-1c-7.4-17.4-35.2-82.4-35.4-87.7
			c-0.1-2.2,1.8-5.8,16.1-14.9c5.5-3.5,11-6.6,13.7-8.2c1-0.5,2.2-0.2,2.7,0.8c0,0,0,0,0,0l0,0c0.5,1,0.2,2.2-0.8,2.7
			c-12.2,6.8-24.9,15.2-27.4,18.7c-0.3,0.5-0.4,1-0.3,1.6c1.9,7.5,21.8,54.8,34.9,85.5C133.3,313.2,132.8,314.4,131.8,314.8
			L131.8,314.8z"/>
	</g>
	<g id="RightArm">
		<g id="Rightarm-2">
			<g id="Rightarm-3">
				<path class="st10" d="M69.4,221.8c-16-0.1-27.8,23.7-32.2,32.5c-8.4,15-24.1,88.5-25.9,105.5c0.6,8.2,11.2,17.4,25.7,19.2
					c28,3.1,30.7-6.7,33.5-11.9c0.7-1.4,4.8-24.7,11-48.6c7.1-27.5,16.4-56.5,16.5-65.3C98.4,233.3,85.3,221.9,69.4,221.8z"/>
			</g>
			<path class="st4" d="M72.4,354.9c-0.3,0-0.6-0.1-0.9-0.1c-2-0.8-1.6-2.5-1.3-4.4c0.2-1,0.5-2.5,0.9-4.4c0.7-3.2,1.9-8.4,3.4-14.6
				c2.6-10.5,6.5-25.4,10.7-36.6c0.5-1.3,1.9-2,3.2-1.5c1.3,0.5,2,1.9,1.5,3.2c0,0,0,0.1,0,0.1c-7.4,20.1-14.5,53.4-15,56.1
				C74.8,353.8,73.7,354.9,72.4,354.9L72.4,354.9z"/>
		</g>
		<g id="RightForearm-2">
			<g id="RightHand-2">
				<g id="RightHand-3">
					<path class="st11" d="M60.1,447.2c-6.8-0.6-49-1.5-58.1-2.1c-5.3,21.2-1.2,51.8,28.3,51.8c16.2,0,25.7-10.7,29.4-23.9
						c1-3.5,1.6-7.1,1.7-10.8C61.7,457.2,61.2,452.1,60.1,447.2z"/>
				</g>
			</g>
			<g id="RightForearm-3">
				<path class="st10" d="M45.8,332.6c-15.9,0-29.3,4.9-33.7,21c-2,12.8-10.4,69.6-10.6,92c12.8,0.1,29.9,1.7,57.8,2
					c0.7-7.6,4.3-30.5,6.1-44.8c2.3-18.4,5.6-34.5,5.9-41.8C72.2,344,61.8,332.6,45.8,332.6z"/>
			</g>
			<path class="st4" d="M60.3,447.8c-0.2,0-0.4,0-0.6-0.1c-2.1-0.5-2-1.8-1.6-5.6c0.2-1.9,0.4-4.6,0.8-8c0.5-4.7,1.5-14.4,2.8-25.9
				c2.1-18.3,5.3-43,8.6-57.3c0.3-1.3,1.6-2.2,3-1.9s2.2,1.6,1.9,3l0,0c-6,26.3-12,89.4-12.2,93.1c0,0.3,0,0.6-0.1,0.8
				C62.4,447,61.4,447.8,60.3,447.8z"/>
		</g>
	</g>
	<g id="Head">
		<g id="Skin">
			<g id="Ear2">
				<path class="st12" d="M218.3,111.3c-8.7,0.3-17.7,10.9-17.3,22.7s6.5,21.2,15.2,20.9c8.7-0.3,16.7-10.1,16.3-21.9
					S226.9,111,218.3,111.3z"/>
			</g>
			<g id="Face">
				<path class="st13" d="M210.7,75.9c-12.7-24-40.1-29.8-67.1-29.8c-19.9,0-41.9,2.6-55.1,16.8c-13.6,14.6-18,41.2-18,63.8
					c0,44.5,32.7,80.6,73.1,80.6s64.2-12.1,70.1-58.8C215.5,132.6,217,87.8,210.7,75.9z"/>
			</g>
			<g id="Ear1">
				<path class="st13" d="M73.1,119.5c-9.3-10.1-19.4-4.9-22.7-2.5s-12.5,12.4-4.2,32.2S81.5,164,81.5,164l2.5-17.3
					C84,146.7,82.3,129.6,73.1,119.5z"/>
			</g>
			<path class="st14" d="M69.8,156.1c-3.7,0-9.6-1.5-10.7-7.3c-1.3-5.1,0.2-8.1,1.6-9.8c1.7-1.8,4-3,6.5-3.1
				c0.8-0.1,1.3-0.8,1.2-1.6c0-0.1,0-0.2-0.1-0.3c-1.4-3.7-3.8-7.8-7-9.3c-1.9-0.9-4.2-0.7-5.9,0.4c-0.7,0.4-1.6,0.1-2-0.6
				c-0.4-0.7-0.1-1.6,0.6-2c2.6-1.6,5.9-1.8,8.7-0.4c5.2,2.5,8.5,9.8,9.5,14.4c0.1,0.5,0,0.9-0.3,1.3l-0.7,0.7
				c-0.3,0.3-0.7,0.5-1.1,0.5c-3.2-0.2-5.6,0.6-7,2.2c-1.3,1.6-1.7,4.1-1,7.2c1.1,5.5,8.6,4.9,8.7,4.9c0.8-0.1,1.6,0.5,1.6,1.4
				c0.1,0.8-0.5,1.6-1.4,1.6C70.5,156.1,70.1,156.1,69.8,156.1z"/>
		</g>
		<g id="Face-2">
			<path id="Eyebrow1" class="st15" d="M117.9,103.7L117.9,103.7c-0.6-0.8-0.4-1.9,0.3-2.5c3.9-2.9,15.5-10.1,26.3-1
				c0.7,0.6,0.8,1.7,0.3,2.5l0,0c-0.4,0.6-1.2,0.8-1.9,0.4c-0.1,0-0.1-0.1-0.1-0.1c-9.5-7.9-19.6-1.5-22.9,1.1
				c-0.6,0.5-1.4,0.4-1.9-0.2C118,103.8,117.9,103.8,117.9,103.7z"/>
			<path id="Eyebrow1-2" class="st15" d="M201.4,104.2L201.4,104.2c0.5-0.8,0.4-1.9-0.3-2.5c-3.7-2.9-15-10.1-25.5-1
				c-0.7,0.7-0.8,1.7-0.3,2.5l0,0c0.4,0.6,1.2,0.8,1.8,0.4c0.1,0,0.1-0.1,0.2-0.1c9.2-7.9,19-1.5,22.2,1.1c0.5,0.4,1.4,0.4,1.8-0.2
				C201.4,104.4,201.4,104.3,201.4,104.2z"/>
			<path class="st16" d="M160.9,158.9c-2.2,0-2.4-0.1-2.9-1l0,0c-0.3-0.6-0.3-1.3,0-1.9l0,0c0.5-1,1.3-1,2.1-1l0,0
				c0.8,0,2.7,0,7-0.1c1-0.1,1.8-1,1.7-2c0,0,0,0,0,0c-0.3-7.5-1.4-20.6-1.8-25.5c-0.1-1,0.5-1.9,1.5-2.1l0,0c1-0.1,1.8,0.7,1.9,1.7
				c0,0,0,0,0,0.1c0.5,6,2,23.9,1.8,29.8l0,0c0,1-0.7,1.8-1.7,1.9l0,0c-4.4,0.1-7.1,0.1-8.8,0.1L160.9,158.9z"/>
			<g id="Eye2">
				<ellipse class="st9" cx="184.9" cy="119.6" rx="7.1" ry="10.5"/>
			</g>
			<g id="Eye1">
				<ellipse class="st9" cx="131.6" cy="119.6" rx="7.1" ry="10.5"/>
			</g>
			<path class="st6" d="M161,174.8c-9.7,0-15.6-2.5-15.9-2.7c-0.8-0.3-1.1-1.2-0.8-2c0.3-0.8,1.2-1.1,2-0.8l0,0l0,0
				c0.1,0.1,13.3,5.7,32.6-0.4c0.8-0.3,1.6,0.1,1.9,0.9c0.3,0.8-0.1,1.6-0.9,1.9c0,0-0.1,0-0.1,0C173.7,173.7,167.4,174.7,161,174.8
				z"/>
		</g>
		<g id="Hair">
			<g id="Hair-2">
				<path class="st15" d="M241.5,43.1c-10.8,1.2-17.5-0.1-26.3-4.5c-7.6-6.1-7.9-9.4-38.3-27c-54-29.8-95.9,6.7-98.3,10.5
					s-4.7,8.4-5.3,13.5c-2.6,0.6-10.9,4.7-15.7,14.3c-3.8,8-6,16.7-6.8,25.5c-1,14,1.5,30.3,4.5,39c12.5-1.6,17.7,4.9,17.5,5.1
					c0,0,5.7,19.1,6.5,20.4c1.6,0.1,6-3,6-3l-3-32.3c0,0,2.1-0.5,9-10.5c9.5-16.4,8.3-35.3,8.3-35.3c8.6,19.3,36.5,19.8,46.5,18.8
					c6.1-0.6,3-4.5,3-4.5s-0.8-1.7-3.8-9c28.4,20.5,37.8,19.3,67.5,20.3c0.7,5.6,0.3,4.4,0.8,12c0.4,6.4,0.8,15.2,0.8,23.3
					c-0.1,9.3-0.8,17.3-0.8,17.3l3,0.8c1.5-8.2,2.5-16.5,3-24.8c1.7-18.3,0.6-26.5,0.8-30c0-1.8,0-1.5,0.8-1.5
					c8.5-0.7,10.6-3.6,10.5-4.5s-3.7-4.2-5.3-5.3c-7.8-6.4-6-4.1,2.3-8.3c9.8-5.1,16.7-10,18-15C247.8,44.2,246.1,43.4,241.5,43.1z"
					/>
			</g>
		</g>
	</g>
</g>
<g id="PivotReference" class="st17">
	<g id="PivotReference-2" class="st18">
		<path class="st19" d="M231.4,351.4c-1.9,0-3.4,1.5-3.4,3.4c0,1.9,1.5,3.4,3.4,3.4c1.9,0,3.4-1.5,3.4-3.4c0,0,0,0,0,0
			C234.8,352.9,233.3,351.4,231.4,351.4z M45.4,355.9c-1.9,0-3.4,1.5-3.4,3.4c0,1.9,1.5,3.4,3.4,3.4s3.4-1.5,3.4-3.4c0,0,0,0,0,0
			C48.8,357.4,47.3,355.9,45.4,355.9z M202.9,237.4c-1.9,0-3.4,1.5-3.4,3.4s1.5,3.4,3.4,3.4c1.9,0,3.4-1.5,3.4-3.4c0,0,0,0,0,0
			C206.3,238.9,204.8,237.4,202.9,237.4z M72.4,240.4c-1.9,0-3.4,1.5-3.4,3.4c0,1.9,1.5,3.4,3.4,3.4s3.4-1.5,3.4-3.4c0,0,0,0,0,0
			C75.8,241.9,74.3,240.4,72.4,240.4z M156.4,203.6c-1.9,0-3.4,1.5-3.4,3.4c0,1.9,1.5,3.4,3.4,3.4s3.4-1.5,3.4-3.4c0,0,0,0,0,0
			C159.8,205.1,158.3,203.6,156.4,203.6z"/>
	</g>
</g>
</svg>
