<svg id="Accueil" xmlns="http://www.w3.org/2000/svg" viewBox="0 0 1920.25 1080.58"><defs><style>.cls-1{fill:#f9faec;}.cls-2{fill:#b4dbb1;}.cls-3{fill:#726658;}.cls-4{fill:#51433c;}.cls-5{fill:#60564b;}.cls-17,.cls-18,.cls-19,.cls-20,.cls-21,.cls-23,.cls-26,.cls-28,.cls-32,.cls-33,.cls-42,.cls-45,.cls-5,.cls-8{fill-rule:evenodd;}.cls-6{fill:#e7e9dc;}.cls-7{fill:#dfc9bb;}.cls-8,.cls-9{fill:#d7beae;}.cls-10{fill:#9e8f84;}.cls-11,.cls-20{fill:#a16a4b;}.cls-12{fill:#c4c6b8;}.cls-13,.cls-41{fill:#2f3847;}.cls-14{fill:#12151a;}.cls-15{font-size:52px;letter-spacing:0.03em;}.cls-15,.cls-35{fill:#edebef;}.cls-15,.cls-41{font-family:CoolveticaRg-Regular, Coolvetica;}.cls-16{letter-spacing:0.1em;}.cls-17,.cls-42{fill:#0d1331;}.cls-17,.cls-26,.cls-34{opacity:0.25;}.cls-17{isolation:isolate;}.cls-18{fill:#d2936d;}.cls-19,.cls-38{fill:#c4825a;}.cls-21,.cls-24{fill:#fdf8f1;}.cls-22{fill:#9dc243;}.cls-23{fill:#64853b;}.cls-25{fill:#dbe1e5;}.cls-26,.cls-34{fill:#0f1431;}.cls-27{fill:none;stroke:#3b5e30;stroke-linejoin:round;stroke-width:13.17px;}.cls-28,.cls-29{fill:#734641;}.cls-30{fill:#532f30;}.cls-31{fill:#915147;}.cls-32{fill:#5c9157;}.cls-33{fill:#457a41;}.cls-36{fill:#ccd4ec;}.cls-37{fill:#e4e9f4;}.cls-39{fill:#202730;}.cls-40{fill:#4b5a6d;}.cls-41{font-size:106.05px;letter-spacing:0.1em;}.cls-42{fill-opacity:0.25;}.cls-43{fill:#f0efb5;}.cls-44{fill:#f8fbf8;}.cls-45{fill:#455c70;}.cls-46{fill:#2d3e4b;}</style></defs><title>MockUp_Accueil</title><g id="Wall"><g id="Wall01"><rect class="cls-1" x="0.25" width="1920" height="571.25"/></g><g id="Wall02"><rect class="cls-2" y="556.52" width="1920" height="270"/></g><g id="WallComplaint_01" data-name="WallComplaint 01"><rect class="cls-3" x="0.25" y="822.08" width="1920" height="42.08"/></g><g id="WallComplaint_02" data-name="WallComplaint 02"><rect class="cls-4" x="0.25" y="855" width="1920" height="9.17"/></g><g id="WallShadow"><polygon class="cls-5" points="0.25 814.17 0.25 822.08 1920.25 822.08 1920.25 814.17 0.25 814.17"/></g><g id="WallTrim"><rect class="cls-6" x="0.25" width="1920" height="27.92"/></g></g><g id="Floor"><rect id="Floor-2" class="cls-7" x="0.05" y="864.75" width="1920" height="215.83"/><g id="Grid"><polygon class="cls-8" points="1920.06 1066.83 1805.89 864.75 1815.47 864.75 1920.06 1050.16 1920.06 1066.83"/><polygon class="cls-8" points="1771.31 1080.58 1761.72 1080.58 1639.64 864.75 1649.22 864.75 1771.31 1080.58"/><polygon class="cls-8" points="1584.22 1080.58 1575.06 1080.58 1452.97 864.75 1462.56 864.75 1584.22 1080.58"/><polygon class="cls-8" points="1426.31 1080.58 1417.14 1080.58 1295.06 864.75 1304.64 864.75 1426.31 1080.58"/><polygon class="cls-8" points="1260.47 1080.58 1250.89 1080.58 1129.22 864.75 1138.39 864.75 1260.47 1080.58"/><polygon class="cls-8" points="1073.39 1080.58 1064.22 1080.58 942.14 864.75 951.72 864.75 1073.39 1080.58"/><polygon class="cls-8" points="911.72 1080.58 902.14 1080.58 780.47 864.75 789.64 864.75 911.72 1080.58"/><polygon class="cls-8" points="745.47 1080.58 735.89 1080.58 614.22 864.75 623.39 864.75 745.47 1080.58"/><polygon class="cls-8" points="558.8 1080.58 549.22 1080.58 427.14 864.75 436.72 864.75 558.8 1080.58"/><polygon class="cls-8" points="400.89 1080.58 391.31 1080.58 269.64 864.75 278.81 864.75 400.89 1080.58"/><polygon class="cls-8" points="234.64 1080.58 225.47 1080.58 103.39 864.75 112.56 864.75 234.64 1080.58"/><polygon class="cls-8" points="47.97 1080.58 38.39 1080.58 0.47 1012.66 0.06 997.25 47.97 1080.58"/><rect class="cls-9" x="0.05" y="913.5" width="1920" height="7.08"/><rect class="cls-9" x="0.05" y="951" width="1920" height="7.08"/><rect class="cls-9" x="0.05" y="1030.16" width="1920" height="7.08"/><rect class="cls-9" x="0.05" y="884.33" width="1920" height="7.08"/><rect class="cls-9" x="0.05" y="988.5" width="1920" height="7.08"/></g><g id="Trim"><rect class="cls-10" x="0.05" y="864.75" width="1920" height="9.17"/></g></g><g id="Door2"><rect class="cls-11" x="56.15" y="185.97" width="393.56" height="394.84"/><rect class="cls-12" x="67.38" y="198.35" width="369.68" height="382.45"/></g><g id="Sign_Accueil"><rect class="cls-13" x="104.34" y="81.03" width="295.74" height="72.26"/><rect class="cls-14" x="104.34" y="153.29" width="295.74" height="5.68"/><text class="cls-15" transform="translate(142.31 135.85)">A<tspan class="cls-16" x="35" y="0">CCUEIL</tspan></text></g><g id="Door"><g id="Door03"><polygon id="DoorShadow" class="cls-17" points="1547.23 864.75 1547.23 272.09 1861.81 272.09 1861.81 864.75 1547.23 864.75"/><g id="Door-2" data-name="Door"><g id="DoorPart_01" data-name="DoorPart 01"><rect class="cls-11" x="1555.96" y="272.09" width="297.12" height="592.66"/></g><g id="DoorPart_02" data-name="DoorPart 02"><polygon class="cls-18" points="1574.61 288.35 1574.61 864.35 1574.61 864.75 1835.23 864.35 1835.23 864.35 1835.23 288.35 1574.61 288.35"/></g><g id="DoorPart_03" data-name="DoorPart 03"><polygon class="cls-19" points="1580.56 294.3 1580.56 864.75 1829.68 864.35 1829.68 294.3 1580.56 294.3"/></g><g id="DoorKnob_Shadow" data-name="DoorKnob Shadow"><path class="cls-20" d="M1642.78,605.92a19.47,19.47,0,0,0-17.85-17.06c-9.92,0-18.25,9.52-18.25,21a22.63,22.63,0,0,0,7.94,17.45,15.2,15.2,0,0,0,9.91,3.57c9.92,0,17.85-9.52,17.85-21A13.41,13.41,0,0,0,1642.78,605.92Z" transform="translate(0.05 0.58)"/></g><g id="DoorKnob"><path class="cls-21" d="M1642.78,605.13a18.12,18.12,0,0,0-17.85-18.25h0a18.05,18.05,0,0,0-.4,36.1,18.63,18.63,0,0,0,15.08-7.94A13,13,0,0,0,1642.78,605.13Z" transform="translate(0.05 0.58)"/></g></g></g><g id="Door02"><polygon id="DoorShadow-2" data-name="DoorShadow" class="cls-17" points="1141.08 864.75 1141.08 272.09 1455.66 272.09 1455.66 864.75 1141.08 864.75"/><g id="Door-3" data-name="Door"><g id="DoorPart_01-2" data-name="DoorPart 01"><rect class="cls-11" x="1149.81" y="272.09" width="297.12" height="592.66"/></g><g id="DoorPart_02-2" data-name="DoorPart 02"><polygon class="cls-18" points="1168.45 288.35 1168.45 864.35 1168.45 864.75 1429.08 864.35 1429.08 864.35 1429.08 288.35 1168.45 288.35"/></g><g id="DoorPart_03-2" data-name="DoorPart 03"><polygon class="cls-19" points="1174.41 294.3 1174.41 864.75 1423.53 864.35 1423.53 294.3 1174.41 294.3"/></g><g id="DoorKnob_Shadow-2" data-name="DoorKnob Shadow"><path class="cls-20" d="M1236.63,605.92a19.47,19.47,0,0,0-17.85-17.06c-9.92,0-18.25,9.52-18.25,21a22.63,22.63,0,0,0,7.94,17.45,15.2,15.2,0,0,0,9.91,3.57c9.92,0,17.86-9.52,17.86-21A13.74,13.74,0,0,0,1236.63,605.92Z" transform="translate(0.05 0.58)"/></g><g id="DoorKnob-2" data-name="DoorKnob"><path class="cls-21" d="M1236.63,605.13a18.12,18.12,0,0,0-17.85-18.25h0a18.05,18.05,0,1,0-.4,36.1,18.63,18.63,0,0,0,15.08-7.94A13,13,0,0,0,1236.63,605.13Z" transform="translate(0.05 0.58)"/></g></g></g><g id="Door01"><polygon id="DoorShadow-3" data-name="DoorShadow" class="cls-17" points="734.68 864.75 734.68 272.09 1049.26 272.09 1049.26 864.75 734.68 864.75"/><g id="Door-4" data-name="Door"><g id="DoorPart_01-3" data-name="DoorPart 01"><rect class="cls-11" x="743.41" y="272.09" width="297.12" height="592.66"/></g><g id="DoorPart_02-3" data-name="DoorPart 02"><polygon class="cls-18" points="762.05 288.35 762.05 864.35 762.05 864.75 1022.68 864.35 1022.68 864.35 1022.68 288.35 762.05 288.35"/></g><g id="DoorPart_03-3" data-name="DoorPart 03"><polygon class="cls-19" points="768 294.3 768 864.75 1017.12 864.35 1017.12 294.3 768 294.3"/></g><g id="DoorKnob_Shadow-3" data-name="DoorKnob Shadow"><path class="cls-20" d="M830.23,605.92a19.47,19.47,0,0,0-17.85-17.06c-9.92,0-18.25,9.52-18.25,21a22.65,22.65,0,0,0,7.93,17.45,15.25,15.25,0,0,0,9.92,3.57c9.92,0,17.85-9.52,17.85-21A13.41,13.41,0,0,0,830.23,605.92Z" transform="translate(0.05 0.58)"/></g><g id="DoorKnob-3" data-name="DoorKnob"><path class="cls-21" d="M830.23,605.13a18.12,18.12,0,0,0-17.85-18.25h0A18.05,18.05,0,1,0,812,623,18.59,18.59,0,0,0,827.05,615,13.07,13.07,0,0,0,830.23,605.13Z" transform="translate(0.05 0.58)"/></g></g></g></g><g id="Plant"><g id="Plant-2"><path class="cls-22" d="M43.33,519.23c-3.76-5.31-8.6-.53-12.36-.53a96.35,96.35,0,0,1,4.3-11.15l-7,4.25h0c2.68-5.31,5.91-17,3.22-22.84-3.22-2.12-10.75,12.22-10.75,12.22,2.15-8,2.69-22.3-2.68-28.68h0l-1.61,8-2.15-13.28H13.24L12.17,473v0h0v-.53L7.33,506c0-2.36-3.24-17-7.33-22.43,0,16.66,0,30.41,0,53.68C19.34,541.31,46.48,534.1,43.33,519.23Z" transform="translate(0.05 0.58)"/></g><g id="PlantShadow"><path class="cls-23" d="M35.81,523Zm.53,0h0l-14,6.9,3.22-6.37-7.52,3.72a27.66,27.66,0,0,1-.54-6.91l-5.91,8.5-7.52-7.43-.54.53c0,2.12-.54,4.24-.54,6.37l-3-1v13c16.27,3.42,40-2.72,41.71-15.19ZM19.15,503.83h0c-1.07,3.72-1.61,8-2.68,11.68C17.54,514.45,23.45,503.83,19.15,503.83Zm0,0M9.48,518.17h0L7.33,508.08h0L5.72,507C2,507,6.79,517.64,9.48,518.17Z" transform="translate(0.05 0.58)"/></g><g id="PlantPot"><path class="cls-24" d="M36.88,533.57c-8.06,1.59-16.12,2.12-24.71,2.65A106.47,106.47,0,0,1,0,535.49c0,9.8,0,37.48,0,47.9a68.37,68.37,0,0,0,12.17,1.15,61.28,61.28,0,0,0,17.19-2.65c2.69-8.5,4.3-17.52,5.91-26.55A143.77,143.77,0,0,0,36.88,533.57Z" transform="translate(0.05 0.58)"/></g><g id="PlantShadow-2"><path class="cls-25" d="M36.88,533.57c-8.06,1.59-16.12,2.12-24.71,2.65,5.37,4.78,7.52,34.52,0,48.32a61.28,61.28,0,0,0,17.19-2.65c2.69-8.5,4.3-17.52,5.91-26.55A149.05,149.05,0,0,0,36.88,533.57Z" transform="translate(0.05 0.58)"/></g></g><g id="BigPlant"><path id="BigPlantShadow" class="cls-26" d="M640.87,886.61c-3.48,0-25.56,2.17-48.12,2.17-24.17,0-48.9-2.17-52-2.17a20.3,20.3,0,0,1-.2-4c10.46.61,29.16,1.17,50.13,1.31,19.38.13,40.21-.68,50.53-1.31A11.27,11.27,0,0,1,640.87,886.61Z" transform="translate(0.05 0.58)"/><path id="PlantPath" class="cls-27" d="M593.33,738.44l-.19-16.73,0-50.33c0-14.69.26-29.34.67-44q.39-14.65,1-29.31.72-18.32,1.75-36.63t2.31-36.61a.91.91,0,0,0-.84-1,.89.89,0,0,0-1,.82c-1.15,12.2-2.24,24.39-3.18,36.58s-1.76,24.43-2.39,36.66c-.51,9.78-.92,19.57-1.16,29.37-.36,14.68-.36,29.37-.15,44.09q.24,12.58.48,25.17t.6,25.17l.61,16.75" transform="translate(0.05 0.58)"/><g id="BigPlant_Pot"><path class="cls-28" d="M640.87,882.62c-3.48,0-25.56,1.31-48.12,1.31-24.17,0-48.9-1.31-52-1.31-6,0-16.26-64.39-16.26-118.41H656.87C656.87,826.82,648.1,882.62,640.87,882.62Z" transform="translate(0.05 0.58)"/><rect class="cls-29" x="516.54" y="729.98" width="145.55" height="27.36" rx="3.5"/><rect class="cls-30" x="524.54" y="757.34" width="132.39" height="7.45"/><rect class="cls-31" x="516.54" y="729.98" width="145.55" height="4.52"/></g><g id="BigPlantGreen"><path class="cls-27" d="M593.51,708.35h0s0,0,0,0a.55.55,0,0,0,0-.22l0,0,0,.05v0l0,0,0,0v0h0c.07,0,.07,0,0-.11.17-.37.6-1.19.65-1.26.33-.49.69-1,1.07-1.41s.77-.89,1.18-1.31q1.65-1.74,3.47-3.36c1.19-1.06,2.43-2.08,3.7-3a27.88,27.88,0,0,1,8-4.12,29.28,29.28,0,0,1,3.42-.9,15.37,15.37,0,0,1,5.13-.17c3.47.55,6.4,2.69,7.85,7.29a.92.92,0,0,0,1.11.65.89.89,0,0,0,.65-1.1c-1.21-5.9-4.73-8.86-9-9.89a17.62,17.62,0,0,0-8.36.23,23.67,23.67,0,0,0-4.6,1.72,28.22,28.22,0,0,0-6.05,4,50.08,50.08,0,0,0-3.59,3.55c-1.13,1.24-2.19,2.53-3.2,3.84-.38.51-.75,1-1.09,1.56s-.67,1.08-1,1.64c0,.1-.46,1.17-.6,1.61a1.32,1.32,0,0,0-.07.27.68.68,0,0,0,.07.42.58.58,0,0,0,.75.3A.62.62,0,0,0,593.51,708.35Zm-.09-.48a.45.45,0,0,1,.08.17h0A.8.8,0,0,0,593.42,707.87Zm-.5-.28a.59.59,0,0,1,.39.16A.5.5,0,0,0,592.92,707.59Z" transform="translate(0.05 0.58)"/><path class="cls-27" d="M592.26,673a.63.63,0,0,0,.54.6.74.74,0,0,0,.8-.27.69.69,0,0,0,.06-.71,19.83,19.83,0,0,0-1.79-1.82c-.63-.67-1.26-1.33-1.92-2s-1.34-1.27-2-1.88a51.31,51.31,0,0,0-7.59-5.64,26.63,26.63,0,0,0-6-2.58,18,18,0,0,0-9.19-.18,17.76,17.76,0,0,0-5.6,2.55,23.63,23.63,0,0,0-6.25,6.39,31.4,31.4,0,0,0-4.76,12.08.91.91,0,0,0,1.78.38,30.9,30.9,0,0,1,3.28-7.74,25.87,25.87,0,0,1,5.23-6.36,17.79,17.79,0,0,1,6.91-3.83,15.41,15.41,0,0,1,7.81-.19,24.37,24.37,0,0,1,5.45,1.94,50.85,50.85,0,0,1,7.65,4.76c.72.52,1.42,1.06,2.11,1.62s1.37,1.14,2,1.74c.29.25.9.67,1.35,1Z" transform="translate(0.05 0.58)"/><path class="cls-27" d="M593.75,635.3s0,0,0-.07A1.06,1.06,0,0,1,594,635a7.21,7.21,0,0,1,1.56-1.45,37.72,37.72,0,0,1,4.25-2.68c1.14-.65,2.36-1.27,3.63-1.88s2.45-1.1,3.71-1.57c.66-.25,1.33-.49,2-.72a30.16,30.16,0,0,1,3-.84,14,14,0,0,1,8.5.52.91.91,0,0,0,1.22-.39.89.89,0,0,0-.39-1.21,14.66,14.66,0,0,0-7.26-2.15,18.84,18.84,0,0,0-5,.5,20.47,20.47,0,0,0-2.4.69,22.87,22.87,0,0,0-2.28,1,39.13,39.13,0,0,0-6.19,3.87,33.1,33.1,0,0,0-4.62,4.21c-1,1.23-1.46,2.42-1,3.1a.65.65,0,0,0,.87.24A.64.64,0,0,0,593.75,635.3Z" transform="translate(0.05 0.58)"/><path class="cls-27" d="M593.53,605.41c.05-.06,0-.08-.1-.08a.16.16,0,0,0,0-.07c-.56-.65-1.87-2.38-1.94-2.47-.81-1-1.65-2.06-2.53-3s-1.79-1.93-2.74-2.86a27.29,27.29,0,0,0-5.49-4.14,17.81,17.81,0,0,0-10.29-2,21.44,21.44,0,0,0-5.56,1.41.9.9,0,0,0-.6,1.13.91.91,0,0,0,1.13.6,20.59,20.59,0,0,1,5.13-.47,17.54,17.54,0,0,1,4.89.87,22.31,22.31,0,0,1,3.65,1.57,31.52,31.52,0,0,1,5.17,3.3c1,.77,2,1.55,3,2.37s1.93,1.64,2.86,2.52c.08.08,1.72,1.62,2.41,2.18l.37.28a.64.64,0,0,0,.88-.16.63.63,0,0,0-.13-.88Zm-.35-.09a.5.5,0,0,0-.35.12A.73.73,0,0,1,593.18,605.32Zm.25,0h-.2a.61.61,0,0,1,.24.07s0,0,0,0h0l-.06,0h0Z" transform="translate(0.05 0.58)"/><path class="cls-27" d="M595.81,563.85c-2,2.86-1.68,3.53-.64,2.69-.14,1.45.49,1.31,1.84-2.16l0-.06a11.82,11.82,0,0,1,1.24-1.61c.51-.48,1-.9,1.59-1.33.83-.65,1.69-1.23,2.57-1.8,1.16-.82,2.41-1.58,3.64-2.35l1.43-.92c.71-.44,1.42-.88,2.16-1.27a15.15,15.15,0,0,1,5.22-1.81.91.91,0,1,0,0-1.81,14.87,14.87,0,0,0-4.85.35,16.66,16.66,0,0,0-3.06,1,18.41,18.41,0,0,0-2.8,1.51,33.17,33.17,0,0,0-3.6,2.94c-.67.65-1.34,1.31-2,2a22.12,22.12,0,0,0-1.75,2.24,14.54,14.54,0,0,0-1,2.24Z" transform="translate(0.05 0.58)"/><path class="cls-27" d="M596.31,542.23a4.51,4.51,0,0,1-1.11-.82c-1-.92-2-2.13-2.85-2.76s-2-1.42-3.15-2.15a35.32,35.32,0,0,0-3.38-1.91,19.33,19.33,0,0,0-1.93-.83,18.93,18.93,0,0,0-3.09-.86,16.12,16.12,0,0,0-3.63-.32,11.29,11.29,0,0,0-5.34,1.42.9.9,0,1,0,.76,1.64,9.23,9.23,0,0,1,3.7-.36,16.63,16.63,0,0,1,3.71.79c.88.27,1.76.61,2.63.95l1.78.7c1.15.47,2.27.94,3.35,1.43s2.35,1.05,3.38,1.55,2,1.35,3.09,2a5.19,5.19,0,0,0,1.73.75.64.64,0,0,0,.79-.43A.62.62,0,0,0,596.31,542.23Z" transform="translate(0.05 0.58)"/><path class="cls-32" d="M557.66,665.14s-19.78-13.79-35.15-.86S502.68,724.76,504,729.14s69.8-15.41,67.27-43.31c0,0,0-11.07-13.57-20.69" transform="translate(0.05 0.58)"/><path class="cls-32" d="M650.36,744.3c17.58-10.24,1.58-93.14-27.5-48.7" transform="translate(0.05 0.58)"/><path class="cls-32" d="M612.29,623.82s-18.61,50.08,57.7,42c0,0-7.47-89-57.7-42" transform="translate(0.05 0.58)"/><path class="cls-32" d="M578.43,591s-21-31.66-51.18-13.59S503.79,626,503.79,626s78.88,18.9,74.64-35" transform="translate(0.05 0.58)"/><path class="cls-32" d="M608.38,553s40.14-57.3,85.32-1c0,0-68.4,8.24-85.32,1" transform="translate(0.05 0.58)"/><path class="cls-32" d="M582.69,534.4s-56.8-18.25-73.06,15.93l73.06-15.93" transform="translate(0.05 0.58)"/><path class="cls-32" d="M599.1,525.42S528,507,572,453.14c0,0,75.27,10,27.12,72.28" transform="translate(0.05 0.58)"/><path class="cls-33" d="M622.86,695.6s-11.63-8.19-20.38,11.14,30.31,47.8,47.88,37.56" transform="translate(0.05 0.58)"/><path class="cls-33" d="M557.66,665.14l-53.7,64s33.92,8.26,52-12.41,30.35-43.42,1.73-51.59" transform="translate(0.05 0.58)"/><path class="cls-33" d="M572,453.14s20.23,34.54,21.69,42.21,5.21,30.06,5.21,30.06,20.3-15.86,18.1-39.58-34.73-37.9-45-32.69" transform="translate(0.05 0.58)"/><path class="cls-33" d="M578.43,591l-74.64,35s20.55,13,47.1,3.89S579.17,610,578.43,591" transform="translate(0.05 0.58)"/><path class="cls-33" d="M509.63,550.33s20.7-9.43,34.69-12,38.37-3.71,38.37-3.71-27.71,8.83-33.53,9.7-37.26,6.23-39.53,6" transform="translate(0.05 0.58)"/><path class="cls-33" d="M608.38,553s30.69-7.16,45.57-6.9,39.74,6.19,39.74,6.19-68.78,7.43-76.21,5.46" transform="translate(0.05 0.58)"/><path class="cls-32" d="M612.29,623.82l57.7,42s-12.54,9.37-35.65.27-22-13.28-24.31-22.78,2.26-19.48,2.26-19.48" transform="translate(0.05 0.58)"/></g></g><g id="Counter"><rect id="Counter_Shadow" class="cls-34" x="0.05" y="906.23" width="520.67" height="6.7"/><g id="Counter-2" data-name="Counter"><rect class="cls-35" x="0.05" y="637.6" width="520.67" height="241.08"/><rect class="cls-36" x="0.05" y="620.49" width="520.67" height="17.1"/><rect class="cls-37" x="0.05" y="878.67" width="520.67" height="27.56"/><rect class="cls-11" x="0.05" y="589.44" width="544.23" height="31.05"/><rect class="cls-38" x="0.05" y="580.81" width="544.23" height="8.64"/></g></g><g id="PC"><polygon class="cls-39" points="285.26 574.68 347.62 574.75 345.7 580.79 281.65 580.81 285.26 574.68"/><polygon class="cls-13" points="475.9 537.86 295.73 537.86 304.13 425.19 484.3 425.19 475.9 537.86"/><polygon class="cls-13" points="410.23 564.68 352.49 564.68 347.62 580.81 410.23 580.81 410.23 564.68"/><polygon class="cls-39" points="422.18 580.81 384.56 580.81 373.65 511.95 411.28 511.95 422.18 580.81"/><polygon class="cls-40" points="295.73 537.86 292.61 537 300.14 425.19 304.13 425.19 295.73 537.86"/><polygon class="cls-40" points="384.56 580.81 382.42 580.81 371.38 511.95 373.65 511.95 384.56 580.81"/><polygon class="cls-40" points="352.49 564.68 350.82 564.66 345.7 580.79 347.62 580.81 352.49 564.68"/></g><g id="LetterDoor"><text class="cls-41" transform="translate(1672.61 253.38)">C</text><text class="cls-41" transform="translate(1267.94 253.38)">B</text><text class="cls-41" transform="translate(858.47 253.38)">A</text></g><g id="Light"><path id="LightShadow" class="cls-42" d="M758.62,103.42,746,84h0c-15.62-19.42-32.08-27-44.33-29.55C700,54,698.26,54,697,53.61h0V0H685.17V53.19a57.05,57.05,0,0,0-19,4.64,91,91,0,0,0-30.4,24.9L618.9,108.48s33.77.43,46.85.43h.43a25.81,25.81,0,0,0,32.5,17.3A25.47,25.47,0,0,0,716,108.91h0l46-.43Zm-62-41.79" transform="translate(0.05 0.58)"/><g id="LightBulb_02" data-name="LightBulb 02"><circle class="cls-43" cx="691.14" cy="102.31" r="21.95"/></g><g id="LightBulb_01" data-name="LightBulb 01"><path class="cls-44" d="M690.66,87a14.77,14.77,0,1,0,14.77,14.77h0A14.68,14.68,0,0,0,690.66,87Z" transform="translate(0.05 0.58)"/></g><path class="cls-45" d="M754.4,105.11,741.73,85.69C731.6,73,712.61,56.56,691.5,57.83h-1.69c-21.52-1.69-40.1,14.77-50.65,27.44L626.5,104.68" transform="translate(0.05 0.58)"/><g id="LightShadow_01" data-name="LightShadow 01"><path class="cls-46" d="M713.45,62.05a52.89,52.89,0,0,0-45.16,0c17.3-9.71,47.7,26.59,47.7,43.06l38.83.42C741.73,81.05,727.38,68,713.45,62.05Z" transform="translate(0.05 0.58)"/></g><rect class="cls-46" x="689.03" y="0.58" width="3.38" height="57.41"/></g><g id="Light2"><path id="LightShadow-2" data-name="LightShadow" class="cls-42" d="M1920,68.73c-9.16-9.16-20.88-12.56-29.19-14.28-1.69-.42-3.37-.42-4.64-.84h0V0h-11.82V53.19a57.11,57.11,0,0,0-19,4.64A90.94,90.94,0,0,0,1825,82.73l-16.88,25.75s33.77.43,46.85.43h.42a25.83,25.83,0,0,0,32.51,17.3,25.44,25.44,0,0,0,17.3-17.3h0l14.84-.14Zm-34.25-7.1" transform="translate(0.05 0.58)"/><g id="LightBulb_02-2" data-name="LightBulb 02"><circle class="cls-43" cx="1880.31" cy="102.31" r="21.95"/></g><g id="LightBulb_01-2" data-name="LightBulb 01"><path class="cls-44" d="M1879.84,87a14.77,14.77,0,1,0,14.77,14.77h0A14.68,14.68,0,0,0,1879.84,87Z" transform="translate(0.05 0.58)"/></g><path class="cls-45" d="M1920,105.11V73.35c-10.44-9.26-24.35-16.42-39.32-15.52H1879c-21.52-1.69-40.1,14.77-50.65,27.44l-12.66,19.41" transform="translate(0.05 0.58)"/><g id="LightShadow_01-2" data-name="LightShadow 01"><path class="cls-46" d="M1902.63,62.05a52.89,52.89,0,0,0-45.16,0c17.3-9.71,47.69,26.59,47.69,43.06l14.84.16V73.35A62.63,62.63,0,0,0,1902.63,62.05Z" transform="translate(0.05 0.58)"/></g><rect class="cls-46" x="1878.2" y="0.58" width="3.38" height="57.41"/></g></svg>