<svg id="Layer_1" data-name="Layer 1" xmlns="http://www.w3.org/2000/svg" viewBox="0 0 460.81 259.21"><defs><style>.cls-1{fill:#dfc9ba;}.cls-2,.cls-3{fill:#d8bead;}.cls-2,.cls-9{fill-rule:evenodd;}.cls-4{fill:#9e8f84;}.cls-5{fill:#e4eaed;}.cls-6{fill:#7db3c1;}.cls-7{fill:#415e65;}.cls-8{fill:#344a50;}.cls-9{fill:#618b96;}.cls-10{fill:#dce7e8;}</style></defs><title>Background_Cabinet_Medical</title><g id="Floor"><rect id="Floor-2" class="cls-1" y="207.37" width="460.8" height="51.84"/><g id="Grid"><polygon class="cls-2" points="460.81 255.9 433.41 207.37 435.66 207.37 460.81 251.91 460.81 255.9"/><polygon class="cls-2" points="425.06 259.21 422.81 259.21 393.55 207.37 395.8 207.37 425.06 259.21"/><polygon class="cls-2" points="380.21 259.21 377.96 259.21 348.7 207.37 350.95 207.37 380.21 259.21"/><polygon class="cls-2" points="342.34 259.21 340.09 259.21 310.83 207.37 313.08 207.37 342.34 259.21"/><polygon class="cls-2" points="302.48 259.21 300.23 259.21 270.96 207.37 273.21 207.37 302.48 259.21"/><polygon class="cls-2" points="257.63 259.21 255.38 259.21 226.11 207.37 228.36 207.37 257.63 259.21"/><polygon class="cls-2" points="218.76 259.21 216.51 259.21 187.25 207.37 189.5 207.37 218.76 259.21"/><polygon class="cls-2" points="178.9 259.21 176.65 259.21 147.38 207.37 149.63 207.37 178.9 259.21"/><polygon class="cls-2" points="134.05 259.21 131.8 259.21 102.53 207.37 104.78 207.37 134.05 259.21"/><polygon class="cls-2" points="96.18 259.21 93.93 259.21 64.66 207.37 66.91 207.37 96.18 259.21"/><polygon class="cls-2" points="56.31 259.21 54.06 259.21 24.8 207.37 27.05 207.37 56.31 259.21"/><polygon class="cls-2" points="11.46 259.21 9.21 259.21 0.08 242.84 0 239.15 11.46 259.21"/><rect class="cls-3" x="0.04" y="219.08" width="460.77" height="1.74"/><rect class="cls-3" x="0.04" y="228.08" width="460.77" height="1.74"/><rect class="cls-3" x="0.04" y="247.08" width="460.77" height="1.74"/><rect class="cls-3" x="0.04" y="212.08" width="460.77" height="1.74"/><rect class="cls-3" x="0.04" y="237.08" width="460.77" height="1.74"/></g><g id="Trim"><rect class="cls-4" y="207.37" width="460.8" height="2.16"/></g></g><g id="Wall"><g id="Wall01"><rect class="cls-5" width="460.2" height="137.05"/></g><g id="Wall02"><rect class="cls-6" y="132.49" width="460.81" height="64.8"/></g><g id="WallComplaint_01" data-name="WallComplaint 01"><rect class="cls-7" x="0.01" y="197.29" width="460.79" height="10.08"/></g><g id="WallComplaint_02" data-name="WallComplaint 02"><rect class="cls-8" y="205.21" width="460.81" height="2.16"/></g><g id="WallShadow"><polygon class="cls-9" points="0.04 195.37 0 197.29 460.8 197.29 460.8 195.37 0.04 195.37"/></g><g id="WallTrim"><rect class="cls-10" y="0.01" width="460.8" height="6.72"/></g></g></svg>