<?xml version="1.0" encoding="utf-8"?>
<!-- Generator: Adobe Illustrator 23.0.2, SVG Export Plug-In . SVG Version: 6.00 Build 0)  -->
<svg version="1.1" id="Bookcase" xmlns="http://www.w3.org/2000/svg" xmlns:xlink="http://www.w3.org/1999/xlink" x="0px" y="0px"
	 viewBox="0 0 80.9 167.9" style="enable-background:new 0 0 80.9 167.9;" xml:space="preserve">
<style type="text/css">
	.st0{opacity:0.25;fill-rule:evenodd;clip-rule:evenodd;fill:#000932;}
	.st1{fill:#F7FCFD;}
	.st2{fill:#CBD4EF;}
	.st3{fill:#AFBAD7;}
	.st4{fill:#323B61;}
	.st5{fill:#DB945B;}
	.st6{fill:#B5485A;}
	.st7{fill:#E4E8F6;}
</style>
<path id="Bookcase_Shadow" class="st0" d="M0,167.9V3h80.9v164.9H0z"/>
<g id="Bookcase-2">
	<g id="Bookcase_Part_01">
		<path class="st1" d="M3,3v163c0,1.3,0.2,1.9,1.3,1.9h71.8c1.7-0.1,1.8-1,1.8-2.3V3H3z"/>
	</g>
	<g id="Bookcase_Interior04">
		<rect x="7.3" y="8.5" class="st2" width="66.5" height="32"/>
	</g>
	<g id="Bookcase_Interior03">
		<rect x="7.3" y="44.7" class="st2" width="66.5" height="32"/>
	</g>
	<g id="Bookcase_Interior02">
		<rect x="7.3" y="81" class="st2" width="66.5" height="32"/>
	</g>
	<g id="Bookcase_Interior01">
		<rect x="7.3" y="116.9" class="st2" width="66.5" height="32"/>
	</g>
	<g id="Bookcase_TopInterior01">
		<polygon class="st3" points="7.4,8.2 9.1,10.9 71.9,10.9 73.9,8.2 		"/>
	</g>
	<g id="Bookcase_TopInterior02">
		<polygon class="st3" points="7.4,44.7 9.1,45.9 71.9,45.9 73.9,44.7 		"/>
	</g>
</g>
<g id="Books">
	<g id="Blue">
		<g id="Rectangle_37">
			<rect x="27" y="18.6" class="st4" width="5.3" height="21.8"/>
		</g>
		<g id="Rectangle_38">
			<rect x="11.4" y="19.6" class="st4" width="6.5" height="20.9"/>
		</g>
		<g id="Rectangle_39">
			<rect x="46.7" y="15.5" class="st4" width="5.5" height="25"/>
		</g>
		<g id="Rectangle_40">
			<rect x="49.5" y="18.6" class="st4" width="7.2" height="21.8"/>
		</g>
		<g id="Rectangle_41">
			<rect x="12.4" y="51.7" class="st4" width="4.6" height="25"/>
		</g>
		<g id="Rectangle_42">
			<rect x="21.5" y="53.2" class="st4" width="5" height="23.5"/>
		</g>
		<g id="Rectangle_43">
			<rect x="36.1" y="53.2" class="st4" width="4.8" height="23.5"/>
		</g>
		<g id="Rectangle_44">
			<rect x="50.3" y="57" class="st4" width="4.6" height="19.7"/>
		</g>
		<g id="Rectangle_45">
			<rect x="59.9" y="51.7" class="st4" width="4.6" height="25"/>
		</g>
		<g id="Rectangle_46">
			<rect x="69.2" y="54.6" class="st4" width="4.6" height="22.1"/>
		</g>
		<g id="Rectangle_47">
			<rect x="7.3" y="88.2" class="st4" width="5" height="24.7"/>
		</g>
		<g id="Rectangle_48">
			<rect x="22.2" y="91.3" class="st4" width="5.3" height="21.6"/>
		</g>
		<g id="Rectangle_49">
			<rect x="64.4" y="85.8" class="st4" width="4.8" height="27.1"/>
		</g>
		<g id="Rectangle_50">
			<rect x="24.4" y="121.1" class="st4" width="4.8" height="27.8"/>
		</g>
		<g id="Rectangle_51">
			<rect x="44.3" y="127.1" class="st4" width="5.3" height="21.8"/>
		</g>
		<g id="Rectangle_84">
			<rect x="31.6" y="92.4" class="st4" width="6" height="20.4"/>
		</g>
	</g>
	<g id="Yellow">
		<g id="Rectangle_22">
			<rect x="22.2" y="14" class="st5" width="5" height="26.4"/>
		</g>
		<g id="Rectangle_23">
			<rect x="37.1" y="13.8" class="st5" width="4.8" height="26.6"/>
		</g>
		<g id="Rectangle_24">
			<rect x="64.2" y="16.4" transform="matrix(0.9715 -0.237 0.237 0.9715 -4.8515 16.5149)" class="st5" width="4.1" height="24"/>
		</g>
		<g id="Rectangle_25">
			<rect x="7.6" y="54.6" class="st5" width="4.8" height="22.1"/>
		</g>
		<g id="Rectangle_26">
			<rect x="31.1" y="57.7" class="st5" width="5" height="19"/>
		</g>
		<g id="Rectangle_27">
			<rect x="40.7" y="51.5" class="st5" width="4.8" height="25.2"/>
		</g>
		<g id="Rectangle_28">
			<rect x="54.8" y="53.9" class="st5" width="5" height="22.8"/>
		</g>
		<g id="Rectangle_29">
			<rect x="64.4" y="57.7" class="st5" width="4.8" height="19"/>
		</g>
		<g id="Rectangle_30">
			<rect x="17.1" y="86.5" class="st5" width="5" height="26.4"/>
		</g>
		<g id="Rectangle_31">
			<rect x="58.9" y="91.1" class="st5" width="5.5" height="21.8"/>
		</g>
		<g id="Rectangle_32">
			
				<rect x="37.2" y="98.2" transform="matrix(0.2183 -0.9759 0.9759 0.2183 -59.7806 126.7726)" class="st5" width="24" height="5"/>
		</g>
		<g id="Rectangle_32-2">
			
				<rect x="2.4" y="134.2" transform="matrix(0.2183 -0.9759 0.9759 0.2183 -122.1114 120.9569)" class="st5" width="24" height="5"/>
		</g>
		<g id="Rectangle_33">
			<rect x="29.1" y="124.2" class="st5" width="5" height="24.7"/>
		</g>
		<g id="Rectangle_34">
			<rect x="38.8" y="132.1" class="st5" width="5.5" height="16.8"/>
		</g>
		<g id="Rectangle_35">
			<rect x="53.9" y="122.3" class="st5" width="5" height="26.6"/>
		</g>
		<g id="Rectangle_36">
			<rect x="64" y="122.5" class="st5" width="5" height="26.4"/>
		</g>
	</g>
	<g id="Red">
		<g id="Rectangle_6">
			<rect x="7.6" y="16" class="st6" width="5" height="24.5"/>
		</g>
		<g id="Rectangle_7">
			<rect x="17.1" y="12.4" class="st6" width="5" height="28.1"/>
		</g>
		<g id="Rectangle_8">
			<rect x="32" y="18.6" class="st6" width="5" height="21.8"/>
		</g>
		<g id="Rectangle_9">
			<rect x="41.9" y="12.4" class="st6" width="5" height="28.1"/>
		</g>
		<g id="Rectangle_10">
			<rect x="56.5" y="18.6" class="st6" width="5" height="21.8"/>
		</g>
		<g id="Rectangle_11">
			<rect x="16.9" y="59.4" class="st6" width="4.6" height="17.3"/>
		</g>
		<g id="Rectangle_12">
			<rect x="26.5" y="57.7" class="st6" width="4.8" height="19"/>
		</g>
		<g id="Rectangle_13">
			<rect x="45.5" y="60.1" class="st6" width="4.8" height="16.6"/>
		</g>
		<g id="Rectangle_14">
			<rect x="12.4" y="91.1" class="st6" width="4.8" height="21.8"/>
		</g>
		<g id="Rectangle_15">
			<rect x="27.2" y="84.8" class="st6" width="5" height="28.1"/>
		</g>
		<g id="Rectangle_16">
			<rect x="36.8" y="88.2" class="st6" width="5" height="24.7"/>
		</g>
		<g id="Rectangle_17">
			<rect x="54.1" y="88" class="st6" width="5" height="25"/>
		</g>
		<g id="Rectangle_18">
			<rect x="19.3" y="127.3" class="st6" width="5" height="21.7"/>
		</g>
		<g id="Rectangle_19">
			<rect x="34.2" y="120.8" class="st6" width="5" height="28.1"/>
		</g>
		<g id="Rectangle_20">
			<rect x="49.1" y="127" class="st6" width="4.8" height="21.9"/>
		</g>
		<g id="Rectangle_21">
			<rect x="58.9" y="130.4" class="st6" width="5" height="18.5"/>
		</g>
	</g>
	<g id="WhiteAccent">
		<g id="Rectangle_52">
			<rect x="28" y="20" class="st7" width="3.4" height="0.6"/>
		</g>
		<g id="Rectangle_53">
			<rect x="28" y="21.3" class="st7" width="3.4" height="0.6"/>
		</g>
		<g id="Rectangle_54">
			<rect x="57.2" y="19.6" class="st7" width="3.6" height="1"/>
		</g>
		<g id="Rectangle_55">
			<rect x="27.2" y="58.7" class="st7" width="3.4" height="1"/>
		</g>
		<g id="Rectangle_56">
			<rect x="37.1" y="73.1" class="st7" width="2.6" height="2.6"/>
		</g>
		<g id="Rectangle_57">
			<rect x="55.8" y="54.6" class="st7" width="3.1" height="1.2"/>
		</g>
		<g id="Rectangle_58">
			<rect x="8" y="111.5" class="st7" width="3.6" height="0.5"/>
		</g>
		<g id="Rectangle_59">
			<rect x="60.1" y="92.5" class="st7" width="3.4" height="4.1"/>
		</g>
		<g id="Rectangle_60">
			<rect x="29.9" y="126.6" class="st7" width="3.6" height="0.7"/>
		</g>
		<g id="Rectangle_61">
			<rect x="20" y="129.5" class="st7" width="3.6" height="0.7"/>
		</g>
		<g id="Rectangle_62">
			<rect x="49.5" y="133.3" class="st7" width="3.8" height="2.2"/>
		</g>
	</g>
	<g id="YellowAccent">
		<g id="Rectangle_63">
			<rect x="42.6" y="13.6" class="st5" width="3.6" height="1"/>
		</g>
		<g id="Rectangle_64">
			<rect x="52.4" y="19.8" class="st5" width="3.4" height="3.8"/>
		</g>
		<g id="Rectangle_65">
			<rect x="51" y="58" class="st5" width="3.1" height="3.8"/>
		</g>
		<g id="Ellipse_1">
			<circle class="st5" cx="24.8" cy="102.1" r="1.7"/>
		</g>
		<g id="Rectangle_66">
			<rect x="27.7" y="86.5" class="st5" width="4.1" height="0.5"/>
		</g>
		<g id="Rectangle_67">
			<rect x="27.7" y="87.5" class="st5" width="4.1" height="0.5"/>
		</g>
		<g id="Rectangle_68">
			<rect x="27.7" y="88.4" class="st5" width="4.1" height="0.5"/>
		</g>
	</g>
	<g id="BlueAccent">
		<g id="Rectangle_69">
			<rect x="17.9" y="38.3" class="st4" width="3.6" height="0.7"/>
		</g>
		<g id="Ellipse_2">
			<ellipse class="st4" cx="19.7" cy="35.4" rx="1.6" ry="1.7"/>
		</g>
		<g id="Rectangle_70">
			<rect x="22.9" y="14.8" class="st4" width="3.6" height="0.5"/>
		</g>
		<g id="Rectangle_71">
			<rect x="17.6" y="75.2" class="st4" width="3.1" height="0.7"/>
		</g>
		<g id="Rectangle_72">
			<rect x="64.7" y="130.9" class="st4" width="3.6" height="8.2"/>
		</g>
		<g id="Rectangle_73">
			<rect x="54.3" y="123" class="st4" width="4.1" height="0.5"/>
		</g>
	</g>
	<g id="RedAccent">
		<g id="Rectangle_74">
			<rect x="13.6" y="22.2" class="st6" width="2.6" height="8.2"/>
		</g>
		<g id="Rectangle_75">
			<rect x="13.6" y="60.6" class="st6" width="2.4" height="7.2"/>
		</g>
		<g id="Rectangle_76">
			<rect x="65.2" y="110" class="st6" width="3.4" height="2.2"/>
		</g>
	</g>
</g>
</svg>
