<?xml version="1.0" encoding="utf-8"?>
<!-- Generator: Adobe Illustrator 23.0.2, SVG Export Plug-In . SVG Version: 6.00 Build 0)  -->
<svg version="1.1" id="Door_1_" xmlns="http://www.w3.org/2000/svg" xmlns:xlink="http://www.w3.org/1999/xlink" x="0px" y="0px"
	 viewBox="0 0 79.3 149.4" style="enable-background:new 0 0 79.3 149.4;" xml:space="preserve">
<style type="text/css">
	.st0{opacity:0.25;fill-rule:evenodd;clip-rule:evenodd;fill:#000932;enable-background:new    ;}
	.st1{fill:#A1694A;}
	.st2{fill-rule:evenodd;clip-rule:evenodd;fill:#D3946D;}
	.st3{fill-rule:evenodd;clip-rule:evenodd;fill:#C4825A;}
	.st4{fill-rule:evenodd;clip-rule:evenodd;fill:#A1694A;}
	.st5{fill-rule:evenodd;clip-rule:evenodd;fill:#FDF9F2;}
</style>
<polygon id="DoorShadow" class="st0" points="0,149.4 0,0 79.3,0 79.3,149.4 "/>
<g id="Door">
	<g id="DoorPart_01">
		<rect x="2.2" y="0" class="st1" width="74.9" height="149.4"/>
	</g>
	<g id="DoorPart_02">
		<polygon class="st2" points="6.9,4.1 6.9,149.3 6.9,149.4 72.6,149.3 72.6,149.3 72.6,4.1 		"/>
	</g>
	<g id="DoorPart_03">
		<polygon class="st3" points="8.4,5.6 8.4,149.4 71.2,149.3 71.2,5.6 		"/>
	</g>
	<g id="DoorKnob_Shadow">
		<path class="st4" d="M24.1,84.3c-0.3-2.3-2.1-4.1-4.5-4.3c-2.5,0-4.6,2.4-4.6,5.3c0,1.7,0.7,3.3,2,4.4c0.7,0.6,1.6,0.9,2.5,0.9
			c2.5,0,4.5-2.4,4.5-5.3C24.1,85,24.1,84.6,24.1,84.3z"/>
	</g>
	<g id="DoorKnob">
		<path class="st5" d="M24.1,84.1c0-2.5-2-4.6-4.5-4.6c0,0,0,0,0,0l0,0c-2.5,0-4.6,2-4.6,4.5s2,4.6,4.5,4.6c1.5,0,3-0.8,3.8-2
			C23.9,85.9,24.2,85,24.1,84.1z"/>
	</g>
</g>
</svg>
