<?xml version="1.0" encoding="utf-8"?>
<!-- Generator: Adobe Illustrator 23.0.2, SVG Export Plug-In . SVG Version: 6.00 Build 0)  -->
<svg version="1.1" id="Frame01" xmlns="http://www.w3.org/2000/svg" xmlns:xlink="http://www.w3.org/1999/xlink" x="0px" y="0px"
	 viewBox="0 0 43.9 40.6" style="enable-background:new 0 0 43.9 40.6;" xml:space="preserve">
<style type="text/css">
	.st0{opacity:0.25;fill:#000932;}
	.st1{fill:#313C61;}
	.st2{fill:#FDF9F2;}
	.st3{fill:#415E65;}
	.st4{fill:#B5485A;}
	.st5{fill-rule:evenodd;clip-rule:evenodd;fill:#FDF9F2;}
</style>
<g id="Frame01_x5F_Shadow">
	<rect y="39.4" class="st0" width="43.9" height="1.2"/>
</g>
<g id="Frame01_1_">
	<g id="Rectangle_77">
		<rect class="st1" width="43.9" height="39.4"/>
	</g>
	<g id="Rectangle_78">
		<rect x="1.2" y="1.2" class="st2" width="41.5" height="37"/>
	</g>
	<g id="Rectangle_78-2">
		<rect x="2.4" y="2.4" class="st3" width="38.9" height="4.3"/>
	</g>
	<g id="Rectangle_78-3">
		<rect x="2.4" y="7.9" class="st4" width="38.9" height="2.4"/>
	</g>
	<g id="Rectangle_82">
		<rect x="2.6" y="11.5" class="st1" width="38.4" height="25"/>
	</g>
	<g id="Rectangle_83">
		<path class="st5" d="M3.4,17.3H8v-5H3.4V17.3z M8.7,17.3h4.6v-5H8.7V17.3z M14.1,17.3h4.6v-5h-4.6C14.1,12.3,14.1,17.3,14.1,17.3z
			 M19.5,17.3h4.6v-5h-4.6V17.3z M24.9,17.3h4.6v-5h-4.6V17.3z M30.3,17.3h4.6v-5h-4.6V17.3z M35.8,12.3v5h4.6v-5
			C40.3,12.3,35.8,12.3,35.8,12.3z M3.4,23.4H8v-5H3.4V23.4z M8.7,23.4h4.6v-5H8.7V23.4z M14.1,23.4h4.6v-5h-4.6
			C14.1,18.4,14.1,23.4,14.1,23.4z M19.5,23.4h4.6v-5h-4.6V23.4z M24.9,23.4h4.6v-5h-4.6V23.4z M30.3,23.4h4.6v-5h-4.6V23.4z
			 M35.8,23.4h4.6v-5h-4.6V23.4z M3.4,29.6H8v-5H3.4V29.6z M8.7,29.6h4.6v-5H8.7V29.6z M14.1,29.6h4.6v-5h-4.6
			C14.1,24.6,14.1,29.6,14.1,29.6z M19.5,29.6h4.6v-5h-4.6V29.6z M24.9,29.6h4.6v-5h-4.6V29.6z M30.3,29.6h4.6v-5h-4.6V29.6z
			 M35.8,29.6h4.6v-5h-4.6V29.6z M3.4,35.8H8v-5H3.4V35.8z M8.7,35.8h4.6v-5H8.7V35.8z M14.1,35.8h4.6v-5h-4.6
			C14.1,30.8,14.1,35.8,14.1,35.8z M19.5,35.8h4.6v-5h-4.6V35.8z M24.9,35.8h4.6v-5h-4.6V35.8z M30.3,35.8h4.6v-5h-4.6V35.8z
			 M35.8,35.8h4.6v-5h-4.6V35.8z"/>
	</g>
</g>
</svg>
