<?xml version="1.0" encoding="utf-8"?>
<!-- Generator: Adobe Illustrator 23.0.2, SVG Export Plug-In . SVG Version: 6.00 Build 0)  -->
<svg version="1.1" id="Frame03" xmlns="http://www.w3.org/2000/svg" xmlns:xlink="http://www.w3.org/1999/xlink" x="0px" y="0px"
	 viewBox="0 0 43.4 44.6" style="enable-background:new 0 0 43.4 44.6;" xml:space="preserve">
<style type="text/css">
	.st0{fill:#000932;fill-opacity:0.25;}
	.st1{fill:#B5485A;}
	.st2{fill:#FDF9F2;}
	.st3{fill-rule:evenodd;clip-rule:evenodd;fill:#D9D0C6;}
	.st4{fill-rule:evenodd;clip-rule:evenodd;fill:#B8B1A8;}
	.st5{fill:#B8B1A8;}
	.st6{fill:#3A3E50;}
	.st7{fill:#74706A;}
</style>
<g id="Frame3_Shadow">
	<rect y="43.4" class="st0" width="43.4" height="1.2"/>
</g>
<g id="Frame03_1_">
	<g id="Rectangle_78">
		<rect class="st1" width="43.4" height="43.4"/>
	</g>
	<g id="Rectangle_85">
		<rect x="1.4" y="1.7" class="st2" width="40.3" height="40.3"/>
	</g>
	<g id="Shape_2">
		<path class="st3" d="M26.6,23.6c-0.2-2-1-3.9-2.1-5.5c-1.8-2.5-5-4.3-7.7-4.2c0,0-6.9-0.4-9.8,4.3c-1.2,1.6-1.9,3.5-2.2,5.5
			c-0.1,4.4,2,8.5,5.6,11l1.5,4c1.3,0.3,1.8,0.3,3.2,0.7h1.2c1.3-0.3,1.9-0.4,3.2-0.7l1.5-4C24.6,32.2,26.8,28,26.6,23.6z"/>
	</g>
	<g id="Ellipse_4">
		<path class="st4" d="M12.8,21.8c-1.9,0-4.5,2.1-4.6,3.9c0,1.7,1.4,2.2,3.4,2.4c1.7,0.1,2.8-1.1,3.1-3S15.2,21.7,12.8,21.8z"/>
	</g>
	<g id="Ellipse_5">
		<path class="st5" d="M15.1,28.4c-0.3,0-0.9,0.8-1.5,2.2s0.6,1.5,0.9,1.6s0.8-0.6,0.9-1.4C15.5,30.2,15.4,28.5,15.1,28.4z"/>
	</g>
	<g id="Ellipse_5-2">
		<path class="st5" d="M18,30.6c-0.5-1.5-1-2.3-1.4-2.3s-0.5,1.8-0.5,2.4c0,0.8,0.4,1.5,0.8,1.5S18.4,32.1,18,30.6z"/>
	</g>
	<g id="Ellipse_4-2">
		<path class="st4" d="M18.6,21.8c-2.4-0.1-2.1,1.6-1.9,3.3s1.5,3,3.1,3c2-0.1,3.4-0.7,3.4-2.4C23.2,23.9,20.5,21.8,18.6,21.8z"/>
	</g>
	<g id="Rectangle_86">
		<rect x="6.5" y="4.8" class="st6" width="32.2" height="1.7"/>
	</g>
	<g id="Rectangle_86-2">
		<rect x="9.6" y="8.4" class="st6" width="29" height="0.5"/>
	</g>
	<g id="Rectangle_86-3">
		<rect x="15.1" y="9.8" class="st6" width="23.5" height="0.5"/>
	</g>
	<g id="Rectangle_86-4">
		<rect x="17.5" y="11.3" class="st6" width="21.1" height="0.5"/>
	</g>
	<g id="Rectangle_86-5">
		<rect x="26.4" y="12.7" class="st6" width="12.2" height="0.5"/>
	</g>
	<g id="Rectangle_87">
		<rect x="27.4" y="20.4" class="st7" width="4.3" height="0.5"/>
	</g>
	<g id="Rectangle_88">
		<rect x="22.3" y="35.5" class="st7" width="6.7" height="0.5"/>
	</g>
	<g id="Rectangle_89">
		<rect x="26.9" y="28.1" class="st7" width="3.4" height="0.5"/>
	</g>
	<g id="Rectangle_89-2">
		<rect x="26.4" y="31" class="st7" width="4.8" height="0.5"/>
	</g>
	<g id="Rectangle_90">
		<rect x="34.1" y="20.2" class="st5" width="5.5" height="1.9"/>
	</g>
	<g id="Rectangle_90-2">
		<rect x="32.4" y="27.8" class="st5" width="5.5" height="1.9"/>
	</g>
	<g id="Rectangle_90-3">
		<rect x="33.6" y="31" class="st5" width="5.5" height="1.9"/>
	</g>
	<g id="Rectangle_90-4">
		<rect x="31" y="35.5" class="st5" width="5.5" height="1.9"/>
	</g>
</g>
</svg>
