<?xml version="1.0" encoding="utf-8"?>
<!-- Generator: Adobe Illustrator 23.0.2, SVG Export Plug-In . SVG Version: 6.00 Build 0)  -->
<svg version="1.1" id="Frame02" xmlns="http://www.w3.org/2000/svg" xmlns:xlink="http://www.w3.org/1999/xlink" x="0px" y="0px"
	 viewBox="0 0 27.4 31.9" style="enable-background:new 0 0 27.4 31.9;" xml:space="preserve">
<style type="text/css">
	.st0{opacity:0.25;fill:#000932;}
	.st1{fill:#415E65;}
	.st2{fill:#FDF9F2;}
	.st3{fill-rule:evenodd;clip-rule:evenodd;fill:#B5485A;}
	.st4{fill:#3A3E50;}
</style>
<g id="Frame2_Shadow">
	<rect y="30.7" class="st0" width="27.4" height="1.2"/>
</g>
<g id="Frame02_1_">
	<g id="Rectangle_77">
		<rect class="st1" width="27.4" height="30.7"/>
	</g>
	<g id="Rectangle_77-2">
		<rect x="1.7" y="1.7" class="st2" width="24" height="27.4"/>
	</g>
	<g id="Shape_1">
		<path class="st3" d="M21,14.3c0-0.1,0-0.1-0.1-0.2c0-0.1-0.1-0.3-0.2-0.4c0-0.1-0.1-0.1-0.1-0.2c-0.1-0.1-0.1-0.2-0.2-0.3
			l-0.2-0.2l-0.3-0.3l-0.2-0.1l-0.3-0.2c-0.1,0-0.2-0.1-0.3-0.1l-0.3-0.1l-0.3-0.1L18.2,12h-0.3h-0.3h-0.3h-0.3l-0.4,0.1l-0.2,0.1
			l-0.4,0.1l-0.2,0.1l-0.4,0.2l-0.1,0.1c-0.1,0.1-0.2,0.1-0.4,0.2l-0.1,0.1c-0.1,0.1-0.2,0.2-0.3,0.3v0.1c-0.1,0.1-0.2,0.2-0.2,0.3
			l0,0c-0.1,0.1-0.1,0.2-0.1,0.4l0,0c0-0.1-0.1-0.3-0.2-0.4l-0.1-0.1l-0.2-0.2L13.5,13l-0.2-0.2L13,12.7l-0.3-0.1l-0.3-0.1l-0.3-0.1
			L12,12.2l-0.3-0.1l-0.3-0.1H11h-0.3h-0.4h-0.3H9.8l-0.3,0.1l-0.3,0.1l-0.3,0.1l-0.3,0.2l-0.2,0.1l-0.3,0.2l-0.2,0.2
			c-0.1,0.1-0.2,0.2-0.2,0.3c-0.1,0.1-0.1,0.1-0.1,0.2c-0.1,0.1-0.1,0.3-0.2,0.4c0,0.1-0.1,0.1-0.1,0.2c-0.1,0.3-0.1,0.5-0.1,0.8
			c-0.1,4,3,7.9,6.5,9.9c0.5,0.3,0.4,0.3,0.9,0c3.6-2,6.7-5.9,6.6-9.9C21.1,14.8,21.1,14.5,21,14.3z"/>
	</g>
	<g id="Rectangle_81">
		<rect x="4.1" y="4.3" class="st4" width="19.4" height="0.5"/>
	</g>
	<g id="Rectangle_81-2">
		<rect x="4.1" y="6.2" class="st4" width="19.4" height="0.5"/>
	</g>
	<g id="Rectangle_81-3">
		<rect x="4.1" y="8.2" class="st4" width="19.4" height="0.5"/>
	</g>
</g>
</svg>
