<?xml version="1.0" encoding="utf-8"?>
<!-- Generator: Adobe Illustrator 23.0.2, SVG Export Plug-In . SVG Version: 6.00 Build 0)  -->
<svg version="1.1" id="Light" xmlns="http://www.w3.org/2000/svg" xmlns:xlink="http://www.w3.org/1999/xlink" x="0px" y="0px"
	 viewBox="0 0 33.8 30.3" style="enable-background:new 0 0 33.8 30.3;" xml:space="preserve">
<style type="text/css">
	.st0{fill-rule:evenodd;clip-rule:evenodd;fill:#000932;fill-opacity:0.25;}
	.st1{fill:#F0EFB5;}
	.st2{fill:#F8FEF9;}
	.st3{fill-rule:evenodd;clip-rule:evenodd;fill:#435B70;}
	.st4{fill:#2D3D4B;}
</style>
<path id="LightShadow" class="st0" d="M33.1,24.5l-3-4.6l0,0c-3.7-4.6-7.6-6.4-10.5-7c-0.4-0.1-0.8-0.1-1.1-0.2l0,0V0h-2.8v12.6
	c-1.6,0.1-3.1,0.5-4.5,1.1c-2.8,1.4-5.2,3.4-7.2,5.9l-4,6.1c0,0,8,0.1,11.1,0.1h0.1c1,3.3,4.4,5.1,7.7,4.1c2-0.6,3.5-2.1,4.1-4.1
	l0,0l10.9-0.1L33.1,24.5z M18.4,14.6L18.4,14.6z"/>
<g id="LightBulb_02">
	<circle class="st1" cx="17.1" cy="24.1" r="5.2"/>
</g>
<g id="LightBulb_01">
	<path class="st2" d="M17,20.6c-1.9,0-3.5,1.6-3.5,3.5s1.6,3.5,3.5,3.5s3.5-1.6,3.5-3.5l0,0C20.5,22.2,19,20.6,17,20.6z"/>
</g>
<path class="st3" d="M32.1,24.9l-3-4.6c-2.4-3-6.9-6.9-11.9-6.6h-0.4c-5.1-0.4-9.5,3.5-12,6.5l-3,4.6"/>
<g id="LightShadow_01">
	<path class="st4" d="M22.4,14.7c-3.4-1.6-7.3-1.6-10.7,0C15.8,12.4,23,21,23,24.9l9.2,0.1C29.1,19.2,25.7,16.1,22.4,14.7z"/>
</g>
<rect x="16.6" y="0" class="st4" width="0.8" height="13.6"/>
</svg>
